<svg width="785" height="408" viewBox="0 0 785 408" fill="none" xmlns="http://www.w3.org/2000/svg">
<g opacity="0.1">
<path d="M500.218 328.263L418.736 361.049L385.738 279.039L467.22 246.253L500.218 328.263ZM419.535 359.175L498.344 327.465L466.421 248.127L387.611 279.837L419.535 359.175Z" fill="#0D0F11"/>
<path d="M452.42 440.853L370.939 473.639L337.937 391.619L419.419 358.834L452.42 440.853ZM371.737 471.765L450.547 440.055L418.624 360.717L339.814 392.427L371.737 471.765Z" fill="#0D0F11"/>
<path d="M564.795 488.759L483.314 521.544L450.316 439.534L531.797 406.748L564.795 488.759ZM484.112 519.671L562.922 487.96L530.999 408.622L452.189 440.332L484.112 519.671Z" fill="#0D0F11"/>
<path d="M259.89 425.038L178.409 457.824L145.553 376.166L227.034 343.38L259.89 425.038ZM179.207 455.95L258.017 424.24L226.236 345.254L147.426 376.964L179.207 455.95Z" fill="#0D0F11"/>
<path d="M339.978 392.674L258.497 425.459L225.659 343.848L307.141 311.062L339.978 392.674ZM259.286 423.589L338.096 391.879L306.333 312.939L227.523 344.65L259.286 423.589Z" fill="#0D0F11"/>
<path d="M372.275 472.94L290.793 505.725L258.008 424.244L339.489 391.458L372.275 472.94ZM291.582 503.855L370.392 472.145L338.682 393.335L259.872 425.046L291.582 503.855Z" fill="#0D0F11"/>
<path d="M178.972 457.187L178.304 457.456L145.56 376.077L227.004 343.306L227.273 343.974C245.18 388.477 223.512 439.266 178.972 457.187ZM147.434 376.875L179.099 455.573C222.235 437.807 243.252 388.563 226.206 345.18L147.434 376.875Z" fill="#0D0F11"/>
<path d="M339.521 392.663L338.853 392.932L306.083 311.488L387.527 278.717L387.796 279.385C405.717 323.925 384.061 374.742 339.521 392.663ZM307.956 312.286L339.652 391.059C382.788 373.293 403.781 324.014 386.729 280.591L307.956 312.286Z" fill="#0D0F11"/>
<path d="M483.625 520.362L482.957 520.631L450.187 439.187L531.631 406.416L531.9 407.084C549.83 451.62 528.174 502.437 483.625 520.362ZM452.06 439.985L483.756 518.758C526.892 500.992 547.885 451.713 530.833 408.29L452.06 439.985Z" fill="#0D0F11"/>
<path d="M339.93 392.499L339.262 392.768C294.722 410.689 243.905 389.033 225.984 344.493L225.715 343.825L307.159 311.055L339.93 392.499ZM227.588 344.624C245.354 387.76 294.633 408.752 338.056 391.701L306.361 312.928L227.588 344.624Z" fill="#0D0F11"/>
<path d="M499.905 327.89L499.237 328.158C454.698 346.08 403.881 324.423 385.959 279.884L385.691 279.216L467.135 246.445L499.905 327.89ZM387.564 280.014C405.33 323.15 454.608 344.143 498.032 327.091L466.337 248.319L387.564 280.014Z" fill="#0D0F11"/>
<path d="M372.193 472.789L290.739 505.564L290.47 504.896C272.549 460.356 294.205 409.539 338.745 391.618L339.413 391.349L372.183 472.793L372.193 472.789ZM291.547 503.686L370.319 471.991L338.624 393.219C295.491 410.994 274.486 460.267 291.547 503.686Z" fill="#0D0F11"/>
<path d="M532.253 407.934L450.808 440.704L450.539 440.036C432.618 395.497 454.275 344.68 498.814 326.758L499.482 326.49L532.253 407.934ZM451.607 438.831L530.379 407.136L498.684 328.363C455.551 346.139 434.546 395.411 451.607 438.831Z" fill="#0D0F11"/>
<path d="M371.422 473.099L370.755 473.368L337.984 391.924L338.652 391.655C383.192 373.734 434.009 395.39 451.93 439.93L452.199 440.598L371.422 473.099ZM371.544 471.498L450.316 439.803C432.55 396.667 383.272 375.674 339.848 392.726L371.544 471.498Z" fill="#0D0F11"/>
<path d="M179.713 456.965L179.045 457.234C134.505 475.155 83.6878 453.499 65.7666 408.959L65.4978 408.291L146.942 375.52L179.713 456.965ZM67.3712 409.089C85.1466 452.222 134.416 473.218 177.839 456.166L146.144 377.394L67.3712 409.089Z" fill="#0D0F11"/>
<path d="M740.599 231.036L659.118 263.821L626.329 182.33L707.81 149.545L740.599 231.036ZM659.916 261.948L738.726 230.237L707.016 151.428L628.206 183.138L659.916 261.948Z" fill="#0D0F11"/>
<path d="M852.806 279.084L771.324 311.869L738.539 230.388L820.02 197.603L852.806 279.084ZM772.123 309.996L850.932 278.286L819.222 199.476L740.412 231.186L772.123 309.996Z" fill="#0D0F11"/>
<path d="M885.173 359.526L803.691 392.312L770.693 310.301L852.175 277.516L885.173 359.526ZM804.49 390.438L883.299 358.728L851.376 279.39L772.567 311.1L804.49 390.438Z" fill="#0D0F11"/>
<path d="M804.994 391.799L723.512 424.584L690.514 342.574L771.996 309.788L804.994 391.799ZM724.301 422.714L803.111 391.004L771.188 311.665L692.378 343.376L724.301 422.714Z" fill="#0D0F11"/>
<path d="M580.165 296.139L498.683 328.924L465.681 246.904L547.163 214.119L580.165 296.139ZM499.482 327.051L578.291 295.34L546.365 215.992L467.555 247.703L499.482 327.051Z" fill="#0D0F11"/>
<path d="M692.465 343.804L610.983 376.59L577.985 294.579L659.467 261.794L692.465 343.804ZM611.782 374.716L690.591 343.006L658.668 263.668L579.859 295.378L611.782 374.716Z" fill="#0D0F11"/>
<path d="M499.243 328.278L498.575 328.547L465.804 247.103L547.249 214.332L547.517 215C565.439 259.54 543.782 310.357 499.243 328.278ZM467.678 247.901L499.373 326.674C542.509 308.908 563.511 259.626 546.45 216.206L467.678 247.901Z" fill="#0D0F11"/>
<path d="M659.786 263.768L659.118 264.036L626.348 182.592L707.792 149.822L708.061 150.49C725.992 195.026 704.335 245.843 659.786 263.768ZM628.221 183.39L659.917 262.163C703.053 244.397 724.046 195.119 706.994 151.695L628.221 183.39Z" fill="#0D0F11"/>
<path d="M643.895 456.296L643.227 456.565L610.457 375.12L691.901 342.35L692.17 343.018C710.091 387.557 688.435 438.375 643.895 456.296ZM612.33 375.919L644.026 454.691C687.162 436.925 708.164 387.643 691.103 344.223L612.33 375.919Z" fill="#0D0F11"/>
<path d="M804.328 391.937L803.66 392.206L770.889 310.762L852.334 277.991L852.602 278.659C870.533 323.195 848.877 374.012 804.328 391.937ZM772.759 311.551L804.454 390.323C847.59 372.557 868.583 323.279 851.531 279.855L772.759 311.551Z" fill="#0D0F11"/>
<path d="M644.601 456.281L563.119 489.067L530.121 407.056L611.603 374.271L644.601 456.281ZM563.918 487.193L642.727 455.483L610.804 376.145L531.995 407.855L563.918 487.193Z" fill="#0D0F11"/>
<path d="M837.523 472.133L756.032 504.922L723.034 422.912L804.515 390.126L837.513 472.137L837.523 472.133ZM756.83 503.049L835.649 471.335L803.726 391.996L724.916 423.706L756.839 503.045L756.83 503.049Z" fill="#0D0F11"/>
<path d="M805.099 391.228L804.431 391.497C759.891 409.418 709.074 387.762 691.153 343.222L690.884 342.554L772.328 309.784L805.099 391.228ZM692.757 343.353C710.523 386.489 759.801 407.482 803.225 390.43L771.53 311.657L692.757 343.353Z" fill="#0D0F11"/>
<path d="M644.488 456.003L643.82 456.272C599.281 474.193 548.464 452.537 530.542 407.997L530.274 407.329L611.718 374.559L644.488 456.003ZM532.143 408.118C549.91 451.254 599.188 472.247 642.611 455.195L610.916 376.423L532.143 408.118Z" fill="#0D0F11"/>
<path d="M837.444 472.1L756 504.87L755.731 504.202C737.81 459.662 759.466 408.845 804.006 390.924L804.674 390.655L837.444 472.1ZM756.808 502.993L835.58 471.297L803.885 392.525C760.74 410.295 739.747 459.573 756.808 502.993Z" fill="#0D0F11"/>
<path d="M660.195 263.603L659.527 263.872C614.987 281.793 564.17 260.137 546.248 215.597L545.98 214.929L627.424 182.159L660.195 263.603ZM547.853 215.728C565.619 258.864 614.897 279.857 658.321 262.805L626.626 184.032L547.853 215.728Z" fill="#0D0F11"/>
<path d="M820.326 199.032L819.658 199.301C775.118 217.222 724.301 195.566 706.38 151.026L706.111 150.358L787.555 117.587L820.326 199.032ZM707.985 151.156C725.751 194.292 775.029 215.285 818.452 198.233L786.757 119.461L707.985 151.156Z" fill="#0D0F11"/>
<path d="M692.334 343.534L610.89 376.304L610.621 375.636C592.7 331.096 614.356 280.279 658.896 262.358L659.564 262.089L692.334 343.534ZM611.688 374.431L690.461 342.735L658.765 263.963C615.629 281.729 594.636 331.007 611.688 374.431Z" fill="#0D0F11"/>
<path d="M612.349 376.126L530.905 408.897L498.134 327.453L498.802 327.184C543.342 309.262 594.159 330.919 612.08 375.459L612.349 376.126ZM531.703 407.023L610.476 375.328C592.709 332.192 543.431 311.199 500.008 328.251L531.703 407.023Z" fill="#0D0F11"/>
<path d="M852.794 279.11L771.35 311.88L771.081 311.212C753.16 266.673 774.816 215.856 819.356 197.934L820.024 197.666L852.794 279.11ZM772.148 310.007L850.921 278.312L819.226 199.539C776.089 217.305 755.087 266.587 772.148 310.007Z" fill="#0D0F11"/>
<path d="M772.56 311.512L691.116 344.283L658.345 262.838L659.013 262.569C703.553 244.648 754.37 266.304 772.291 310.844L772.56 311.512ZM691.914 342.409L770.687 310.714C752.921 267.578 703.643 246.585 660.219 263.637L691.914 342.409Z" fill="#0D0F11"/>
</g>
</svg>
