<svg width="40" height="40" viewBox="0 0 40 40" fill="none" xmlns="http://www.w3.org/2000/svg">
<g clip-path="url(#clip0)">
<rect width="40" height="40" fill="white" fill-opacity="0.01"/>
<path d="M20 40C31.0457 40 40 31.0457 40 20C40 8.9543 31.0457 0 20 0C8.9543 0 0 8.9543 0 20C0 31.0457 8.9543 40 20 40Z" fill="#7792D9"/>
<path d="M17.0173 36.2344H22.2205L22.2048 34.6562L25.1423 33.25L19.783 32.9688L14.0642 33.2656L17.0173 34.8594V36.2344Z" fill="#403294"/>
<path d="M10.9082 33.7656L10.2207 34.0781L7.4707 35.5938C10.1851 37.7741 13.4223 39.2069 16.8613 39.75L10.5801 34.8281L10.9082 33.7656Z" fill="#403294"/>
<path d="M28.5642 33.75L28.8923 34.8281L23.158 39.75C26.5133 39.2187 29.6765 37.8361 32.3455 35.7344L29.4548 34.1563C29.17 33.9958 28.8721 33.8599 28.5642 33.75Z" fill="#403294"/>
<path d="M17.002 39.7813C17.9955 39.9252 18.998 39.9983 20.002 40C20.764 39.9977 21.5254 39.956 22.2832 39.875L22.2207 36.2344H17.0176L17.002 39.7813Z" fill="#6554C0"/>
<path d="M17.002 36.2344V39.7813L17.0176 36.2344H17.002Z" fill="#403294"/>
<path d="M22.2983 39.875V36.2344H22.2202L22.2827 39.875H22.2983Z" fill="#403294"/>
<path d="M27.9395 35.2652C22.5996 33.4519 16.8106 33.4519 11.4707 35.2652C11.4707 34.1402 11.4707 32.9996 11.4551 31.8746C14.0563 30.7095 16.8756 30.1111 19.7257 30.1192C22.5759 30.1273 25.3918 30.7416 27.9863 31.9214L27.9395 35.2652Z" fill="#403294"/>
<path d="M11.2868 23.2801C12.4915 22.9752 13.1609 21.5142 12.782 20.0167C12.4031 18.5192 11.1193 17.5524 9.91465 17.8572C8.70998 18.1621 8.04057 19.6231 8.41949 21.1206C8.79841 22.6181 10.0822 23.5849 11.2868 23.2801Z" fill="#DFB28B"/>
<path d="M30.8494 21.1473C31.2283 19.6499 30.5589 18.1888 29.3542 17.884C28.1495 17.5792 26.8658 18.546 26.4869 20.0435C26.108 21.5409 26.7774 23.002 27.982 23.3068C29.1867 23.6117 30.4705 22.6448 30.8494 21.1473Z" fill="#DFB28B"/>
<path d="M27.2832 33.8281C27.1113 34.0625 24.1582 37.875 19.3301 37.5C15.4082 37.2031 13.1895 34.3906 12.8613 33.9531C13.6501 33.1424 14.2153 32.1411 14.502 31.0469C14.8552 29.6034 14.7291 28.0842 14.1426 26.7188L25.6582 26.4375C25.4863 26.7969 24.5176 28.8906 25.3613 31.2187C25.7424 32.2527 26.4088 33.1575 27.2832 33.8281Z" fill="url(#paint0_linear)"/>
<path d="M19.704 5.92188C24.204 5.95313 26.954 9 27.3759 9.48438C30.2353 12.7656 29.9384 16.6875 29.8759 17.5C29.704 19.5313 29.3759 21.1406 27.8134 24.4063C25.579 29.6563 21.5322 30.7031 19.704 30.7813C17.8759 30.8594 13.1415 28.3125 11.5947 24.4063C10.0321 21.1406 9.70403 19.5313 9.54778 17.5C9.48528 16.6875 9.17278 12.7656 12.0322 9.48438C12.454 9 15.204 5.95313 19.704 5.92188Z" fill="#ECC19C"/>
<path d="M22.2507 16.3595C22.5524 16.1922 22.8798 16.076 23.2194 16.0157C23.5588 15.9482 23.9057 15.9272 24.2507 15.9532C24.5939 15.9701 24.9318 16.044 25.2507 16.172C25.5695 16.2893 25.8695 16.4525 26.1413 16.6563C26.1679 16.6752 26.1861 16.7038 26.192 16.7359C26.1978 16.768 26.1908 16.8012 26.1726 16.8282C26.1542 16.8508 26.1286 16.8663 26.1001 16.872C26.0716 16.8777 26.0419 16.8732 26.0163 16.8595C25.4645 16.5776 24.8547 16.4279 24.2351 16.422C23.9262 16.424 23.618 16.4502 23.3132 16.5001L22.4226 16.7345C22.397 16.7443 22.3696 16.7489 22.3422 16.7479C22.3148 16.7469 22.2879 16.7404 22.2631 16.7287C22.2382 16.717 22.216 16.7004 22.1978 16.6799C22.1796 16.6594 22.1657 16.6355 22.1569 16.6095C22.1397 16.5635 22.1397 16.5128 22.157 16.4669C22.1742 16.4209 22.2075 16.3828 22.2507 16.3595Z" fill="#344563"/>
<path d="M13.6417 18.5928C14.1385 18.245 14.7235 18.0446 15.3292 18.0147C15.9428 17.9987 16.5471 18.1675 17.0636 18.4991C17.0881 18.5226 17.1043 18.5535 17.1097 18.587C17.1151 18.6206 17.1094 18.655 17.0935 18.685C17.0776 18.715 17.0524 18.739 17.0216 18.7534C16.9908 18.7678 16.9562 18.7718 16.9229 18.7647H16.9073C16.6751 18.6223 16.422 18.5168 16.1573 18.4522C15.6201 18.3115 15.0565 18.3061 14.5167 18.4366C14.2488 18.5135 13.9915 18.6237 13.7511 18.7647C13.7257 18.7729 13.6984 18.7728 13.6731 18.7644C13.6478 18.7559 13.6258 18.7396 13.6104 18.7178C13.602 18.7083 13.5961 18.6969 13.5931 18.6846C13.59 18.6723 13.5901 18.6594 13.5932 18.6471C13.5962 18.6348 13.6023 18.6234 13.6107 18.614C13.6192 18.6045 13.6298 18.5973 13.6417 18.5928Z" fill="#172B4D"/>
<path d="M25.4074 18.7655C25.1614 18.6244 24.899 18.5142 24.6261 18.4373C24.0916 18.3069 23.533 18.3122 23.0011 18.453C22.7324 18.5203 22.4746 18.6255 22.2355 18.7655C22.1995 18.7793 22.1599 18.7807 22.1231 18.7694C22.0863 18.758 22.0543 18.7346 22.0324 18.703C22.0168 18.6686 22.013 18.6302 22.0215 18.5935C22.03 18.5568 22.0502 18.5239 22.0792 18.4998C22.5965 18.17 23.2002 18.0014 23.8136 18.0155C24.4238 18.0474 25.0132 18.2475 25.5167 18.5936C25.5297 18.6114 25.537 18.6326 25.5378 18.6546C25.5385 18.6766 25.5325 18.6983 25.5207 18.7169C25.5089 18.7354 25.4918 18.75 25.4715 18.7587C25.4513 18.7673 25.429 18.7697 25.4074 18.7655Z" fill="#172B4D"/>
<path d="M23.6409 19.2031C23.9343 19.2031 24.1721 18.9653 24.1721 18.6719C24.1721 18.3785 23.9343 18.1406 23.6409 18.1406C23.3475 18.1406 23.1096 18.3785 23.1096 18.6719C23.1096 18.9653 23.3475 19.2031 23.6409 19.2031Z" fill="#172B4D"/>
<path d="M15.4385 19.2031C15.7319 19.2031 15.9697 18.9653 15.9697 18.6719C15.9697 18.3785 15.7319 18.1406 15.4385 18.1406C15.1451 18.1406 14.9072 18.3785 14.9072 18.6719C14.9072 18.9653 15.1451 19.2031 15.4385 19.2031Z" fill="#172B4D"/>
<path d="M16.8287 16.7345C16.5417 16.6399 16.2495 16.5616 15.9537 16.5001C15.6488 16.4508 15.3406 16.4247 15.0318 16.422C14.4122 16.4279 13.8024 16.5776 13.2506 16.8595H13.2349C13.2218 16.8675 13.2071 16.8727 13.1919 16.8747C13.1766 16.8767 13.1611 16.8754 13.1463 16.871C13.1316 16.8666 13.1179 16.8591 13.1063 16.849C13.0946 16.8389 13.0852 16.8265 13.0787 16.8126C13.0721 16.7858 13.0715 16.758 13.0769 16.731C13.0823 16.704 13.0936 16.6785 13.1099 16.6563C13.3857 16.4587 13.6848 16.296 14.0006 16.172C14.3253 16.0456 14.6682 15.9717 15.0162 15.9532C15.3612 15.9272 15.7081 15.9482 16.0474 16.0157C16.3865 16.0784 16.7134 16.1945 17.0162 16.3595C17.0401 16.3725 17.0612 16.3902 17.0781 16.4115C17.0951 16.4328 17.1076 16.4573 17.1148 16.4835C17.1221 16.5098 17.1241 16.5372 17.1205 16.5642C17.117 16.5912 17.1081 16.6172 17.0943 16.6407C17.0842 16.6634 17.0697 16.6838 17.0516 16.7009C17.0335 16.7179 17.0122 16.7311 16.9889 16.7399C16.9657 16.7486 16.9409 16.7526 16.9161 16.7517C16.8912 16.7507 16.8669 16.7449 16.8443 16.7345H16.8287Z" fill="#344563"/>
<path d="M25.7192 7.96875L25.5317 9.21875C26.2948 10.46 26.9334 11.7737 27.438 13.1406C28.0474 14.8281 28.3599 15.6563 28.5005 16.7031C28.7036 18.0313 28.6099 18.9531 29.2036 19.2969C29.3314 19.3758 29.4759 19.424 29.6255 19.4375C29.7505 18.7813 29.813 18.1719 29.8755 17.5C29.938 16.8281 30.2349 12.7656 27.3755 9.48438C26.8801 8.92049 26.3248 8.41228 25.7192 7.96875Z" fill="#172B4D"/>
<path d="M12.0322 9.48438C9.17278 12.7656 9.48528 16.6875 9.54778 17.5C9.59161 18.1503 9.67509 18.7974 9.79778 19.4375C9.94202 19.4216 10.0809 19.3736 10.204 19.2969C10.7978 18.9531 10.704 18.0312 10.9072 16.7031C11.0634 15.6563 11.3603 14.8281 11.9697 13.1406C12.4743 11.771 13.1183 10.4568 13.8915 9.21875L13.6884 7.96875C13.0867 8.4169 12.5318 8.92469 12.0322 9.48438Z" fill="#172B4D"/>
<path d="M22.3137 25.5305C21.4543 25.3899 20.8918 25.2337 20.2512 25.3274H20.1106C19.7554 25.4053 19.3876 25.4053 19.0325 25.3274H18.9075C18.2981 25.2337 17.7512 25.3743 16.8762 25.4993L16.0481 25.6243C16.1106 25.6712 17.3606 26.8899 19.5793 26.8899C20.8707 26.9086 22.1251 26.459 23.1106 25.6243L22.3137 25.5305Z" fill="#E0ADA6"/>
<path d="M18.1581 21.7178L18.7206 21.8584L19.0018 21.9365L19.2518 21.9834C19.426 21.9918 19.6003 21.9706 19.7674 21.9209C19.9545 21.8801 20.1376 21.8226 20.3143 21.749C20.3454 21.7391 20.3792 21.7417 20.4084 21.7563C20.4376 21.7709 20.4599 21.7963 20.4706 21.8271C20.4788 21.8525 20.4787 21.8799 20.4702 21.9052C20.4618 21.9305 20.4455 21.9524 20.4237 21.9678C20.2524 22.0873 20.0623 22.1771 19.8612 22.2334C19.6634 22.3167 19.4508 22.3592 19.2362 22.3584L18.9081 22.2959L18.6112 22.2021L18.0643 21.9521C18.0499 21.944 18.0372 21.9331 18.027 21.9201C18.0168 21.907 18.0093 21.892 18.0049 21.876C18.0005 21.86 17.9994 21.8433 18.0015 21.8269C18.0037 21.8104 18.0091 21.7946 18.0174 21.7803C18.0331 21.7334 18.0956 21.7178 18.1424 21.7178H18.1581Z" fill="#CEA28B"/>
<path d="M15.6108 25.4365C16.9447 25.8822 18.3455 26.0936 19.7515 26.0615C21.0003 26.0301 22.2377 25.8143 23.4233 25.4209" fill="#E0ADA6"/>
<path d="M15.627 25.3587C16.2623 25.5403 16.9098 25.6761 17.5645 25.7649C18.2109 25.8615 18.8643 25.9033 19.5177 25.8899C20.1713 25.8903 20.824 25.8433 21.4708 25.7493C21.7964 25.7085 22.1198 25.6511 22.4395 25.5774C22.7614 25.5107 23.0795 25.4272 23.3927 25.3274C23.4154 25.3224 23.4392 25.326 23.4594 25.3375C23.4796 25.3491 23.4948 25.3678 23.502 25.3899C23.5081 25.4107 23.5067 25.433 23.4982 25.453C23.4896 25.4729 23.4744 25.4893 23.4552 25.4993C22.8283 25.7431 22.1795 25.9262 21.5177 26.0462C20.8569 26.1583 20.1879 26.2158 19.5177 26.218C19.1895 26.218 18.8458 26.2024 18.5177 26.1712C18.1818 26.1536 17.8476 26.1118 17.5177 26.0462C16.8542 25.941 16.2044 25.7629 15.5802 25.5149C15.5694 25.5116 15.5594 25.5059 15.551 25.4983C15.5426 25.4908 15.5359 25.4814 15.5315 25.471C15.527 25.4606 15.5249 25.4494 15.5252 25.4381C15.5255 25.4268 15.5283 25.4157 15.5333 25.4055C15.5489 25.3743 15.5958 25.343 15.627 25.3587Z" fill="#CB8C84"/>
<path d="M27.8452 10.3436C28.1264 8.43735 24.9858 6.24986 22.392 5.57798C20.5795 5.10923 19.0639 5.39048 18.1889 5.54673C16.9233 5.79673 13.8608 6.39048 12.3139 8.70298C11.7202 9.57798 11.4077 10.6249 10.3295 10.9686C9.65765 11.1874 8.98578 10.953 8.76703 11.328C8.54828 11.703 8.89203 12.1717 9.03265 12.3749C9.4258 12.9585 10.0036 13.3932 10.6733 13.6092C11.392 13.8905 12.4389 14.1092 13.9702 13.9061C16.1889 13.6092 16.5952 12.7811 18.392 12.7967C19.4389 12.8124 19.7358 13.0936 20.6577 13.2811C23.5483 13.828 27.5483 12.328 27.8452 10.3436Z" fill="#172B4D"/>
<path d="M15.4231 21.8438H14.2668C13.8487 21.8037 13.4517 21.6406 13.1262 21.375C12.7921 21.1231 12.5284 20.7895 12.3606 20.4063C12.1901 20.0326 12.0945 19.6292 12.0793 19.2187V18.3594C12.0749 18.2439 12.0854 18.1284 12.1106 18.0156C12.1513 17.7708 12.2789 17.5489 12.47 17.3906C12.6402 17.2373 12.8433 17.1251 13.0637 17.0625C13.4533 16.9682 13.8509 16.9106 14.2512 16.8906H15.3918C15.7825 16.8906 16.1575 16.9063 16.5481 16.9375L17.6887 17.0625H17.8293L17.9856 17.1094C18.0942 17.1318 18.1992 17.1686 18.2981 17.2187C18.4052 17.2727 18.5007 17.347 18.5793 17.4375C18.6596 17.5299 18.7231 17.6357 18.7668 17.75C18.8124 17.955 18.8282 18.1655 18.8137 18.375C18.8131 18.5738 18.7974 18.7723 18.7668 18.9688C18.6361 19.7593 18.2392 20.4815 17.6418 21.0156C17.023 21.5446 16.2372 21.8379 15.4231 21.8438ZM15.4231 21.4687C15.779 21.4675 16.1324 21.4095 16.47 21.2969C16.8053 21.1666 17.1168 20.9818 17.3918 20.75C17.7272 20.4572 17.9936 20.0938 18.172 19.6859C18.3503 19.278 18.436 18.8356 18.4231 18.3906C18.434 18.2225 18.4182 18.0538 18.3762 17.8906C18.3538 17.8254 18.3168 17.7662 18.2681 17.7175C18.2194 17.6688 18.1602 17.6318 18.095 17.6094L17.8762 17.5312L17.7512 17.5H17.6106L16.5012 17.4219H15.3918L14.2668 17.4844C13.9182 17.5073 13.5728 17.5649 13.2356 17.6563C13.0893 17.7068 12.9521 17.7807 12.8293 17.875C12.7353 17.9595 12.6653 18.0673 12.6262 18.1875L12.5793 18.4219C12.5815 18.5107 12.5763 18.5995 12.5637 18.6875V19.2187C12.5682 19.5633 12.6458 19.9031 12.7912 20.2155C12.9367 20.5279 13.1467 20.806 13.4075 21.0313C13.6702 21.2413 13.9821 21.3811 14.3137 21.4375H15.4231V21.4687Z" fill="#403294"/>
<path d="M23.9076 21.4688H25.017C25.3486 21.4123 25.6605 21.2725 25.9233 21.0625C26.184 20.8372 26.3941 20.5592 26.5395 20.2467C26.6849 19.9343 26.7625 19.5946 26.767 19.25V18.6875C26.767 18.5938 26.7514 18.5 26.7514 18.4219C26.7433 18.3424 26.7276 18.2639 26.7045 18.1875C26.6655 18.0673 26.5954 17.9595 26.5014 17.875C26.3843 17.7808 26.2523 17.7068 26.1108 17.6563C25.7683 17.5649 25.4176 17.5073 25.0639 17.4844L23.9389 17.4219H22.8295L21.7201 17.5H21.5795L21.4701 17.5313C21.3892 17.5478 21.3105 17.574 21.2358 17.6094C21.1729 17.6328 21.1162 17.6703 21.0702 17.719C21.0241 17.7678 20.9899 17.8265 20.9701 17.8906C20.9147 18.0511 20.8934 18.2214 20.9076 18.3906C20.902 18.5683 20.9124 18.7461 20.9389 18.9219C21.0388 19.6362 21.4008 20.2878 21.9545 20.75C22.2216 20.9848 22.5285 21.17 22.8608 21.2969C23.1987 21.4082 23.5519 21.4662 23.9076 21.4688ZM23.9076 21.8438C23.1051 21.8416 22.3295 21.5536 21.7201 21.0313C21.114 20.5019 20.7108 19.7783 20.5795 18.9844C20.549 18.7879 20.5333 18.5894 20.5326 18.3906C20.5159 18.1802 20.5371 17.9685 20.5951 17.7656C20.627 17.6494 20.6859 17.5423 20.767 17.4531C20.8487 17.3659 20.9436 17.2921 21.0483 17.2344C21.1471 17.1842 21.2522 17.1474 21.3608 17.125L21.517 17.0781H21.6576L22.7983 16.9531C23.1889 16.9219 23.5639 16.9062 23.9545 16.9062H25.0951C25.4955 16.9263 25.893 16.9838 26.2826 17.0781C26.5044 17.1374 26.7082 17.2501 26.8764 17.4063C27.0673 17.5672 27.1992 17.7871 27.2514 18.0313C27.2718 18.1446 27.2771 18.2602 27.267 18.375V18.6563C27.2514 18.8594 27.267 19.0313 27.2514 19.2344C27.2362 19.6448 27.1406 20.0482 26.9701 20.4219C26.8032 20.8013 26.5457 21.134 26.2201 21.3906C25.8875 21.6543 25.4862 21.8169 25.0639 21.8594H23.9076V21.8438Z" fill="#403294"/>
<path d="M20.533 18.8283C20.4763 18.8214 20.4225 18.7999 20.3767 18.7658C20.1672 18.646 19.9306 18.5815 19.6892 18.5783C19.4524 18.5791 19.2203 18.6439 19.0173 18.7658C18.9571 18.8005 18.8861 18.8117 18.8181 18.7972C18.7501 18.7826 18.6899 18.7434 18.6492 18.6871C18.6084 18.6308 18.5899 18.5613 18.5973 18.4922C18.6047 18.4231 18.6374 18.3591 18.6892 18.3127C18.9814 18.1061 19.3313 17.9967 19.6892 18.0002C20.0523 17.9945 20.4078 18.1039 20.7048 18.3127C20.7646 18.3565 20.8047 18.422 20.8164 18.4952C20.8281 18.5683 20.8105 18.6431 20.7673 18.7033C20.7407 18.7409 20.7056 18.7718 20.6649 18.7935C20.6242 18.8152 20.5791 18.8271 20.533 18.8283Z" fill="#403294"/>
<path d="M27.1582 17.8438H29.4395C29.5306 17.8438 29.6181 17.88 29.6825 17.9444C29.747 18.0089 29.7832 18.0963 29.7832 18.1875C29.7832 18.2787 29.747 18.3661 29.6825 18.4306C29.6181 18.495 29.5306 18.5312 29.4395 18.5312H27.1582V17.8438Z" fill="#403294"/>
<path d="M12.4082 18.4063H9.9707C9.87953 18.4063 9.7921 18.37 9.72764 18.3056C9.66317 18.2411 9.62695 18.1537 9.62695 18.0625C9.62695 17.9713 9.66317 17.8839 9.72764 17.8194C9.7921 17.755 9.87953 17.7188 9.9707 17.7188H12.4082V18.4063Z" fill="#403294"/>
<path d="M28.5649 33.749L28.0181 31.874L25.1431 33.249L22.2056 34.6553V36.2334L22.2837 39.874L23.1431 39.749L28.8774 34.8271L28.5649 33.749Z" fill="#5243AA"/>
<path d="M11.4553 31.874L10.9084 33.7646L10.5803 34.8271L16.8616 39.749L17.0022 39.7803V36.2334H17.0178V34.8584L14.0647 33.2646L11.4553 31.874Z" fill="#5243AA"/>
</g>
<defs>
<linearGradient id="paint0_linear" x1="20.0676" y1="36.7766" x2="20.0676" y2="21.6078" gradientUnits="userSpaceOnUse">
<stop stop-color="#ECC19C"/>
<stop offset="1" stop-color="#CEA28B"/>
</linearGradient>
<clipPath id="clip0">
<rect width="40" height="40" fill="white"/>
</clipPath>
</defs>
</svg>
