<svg width="266" height="181" viewBox="0 0 266 181" fill="none" xmlns="http://www.w3.org/2000/svg">
<path opacity="0.06" fill-rule="evenodd" clip-rule="evenodd" d="M-170.669 -285.293C-173.083 -283.73 -211.904 -310.29 -239.572 -329.786C-244.988 -333.603 -252.452 -329.559 -252.191 -322.938V-322.938C-252.088 -320.312 -250.696 -317.906 -248.47 -316.507L-182.945 -275.318C-179.107 -272.906 -177.74 -267.967 -179.79 -263.925L-243.779 -137.778C-244.455 -136.444 -244.78 -134.959 -244.721 -133.464L-243.657 -106.491C-243.606 -105.197 -243.269 -103.93 -242.671 -102.782L-139.881 94.4349C-138.312 97.4443 -135.148 99.2788 -131.757 99.1451L-116.728 98.5525C-113.176 98.4125 -48.366 60.2308 -8.38432 36.3831C-3.29857 33.3496 3.25538 36.1249 4.63628 41.8834L4.87489 42.8784C5.68349 46.2504 4.42964 49.7821 1.67585 51.8893L-51.2275 92.3709C-51.7699 92.786 -52.3599 93.1328 -52.9772 93.4252C-55.8787 94.7997 -59.791 97.0137 -59.7339 98.4616C-59.7224 98.755 -60.0145 99.3407 -60.4396 100.193C-62.9991 105.323 -70.3775 120.112 -45.2854 138.922C-42.7292 140.838 -41.2151 143.904 -41.4935 147.087L-50.1744 246.33C-50.6455 251.717 -55.8381 255.431 -61.1591 254.472C-70.0409 252.872 -81.9768 251.356 -92.4959 251.77L-218.899 256.754C-223.317 256.928 -226.756 260.65 -226.582 265.068V265.068C-226.405 269.543 -222.601 273.003 -218.129 272.75C-177.823 270.466 -108.844 266.977 -101.546 268.299C-99.1401 268.735 -95.636 269.063 -91.1706 269.48C-77.4986 270.757 -54.8144 272.876 -27.0489 281.534C0.241148 290.043 60.6342 311.55 93.5155 323.436C97.5918 324.91 102.079 322.852 103.642 318.809V318.809C105.155 314.896 103.373 310.48 99.567 308.714L81.8526 300.493C77.5844 298.512 75.6307 293.539 77.4333 289.192C97.0125 241.982 130.661 159.984 130.533 156.726C130.433 154.196 124.076 147.878 118.39 142.8C115.22 139.969 114.274 135.266 116.85 131.885C119.281 128.695 122.157 125.79 124.459 125.7C129.302 125.509 161.42 140.414 161.632 145.797C161.757 148.968 164.196 144.054 166.349 138.912C167.676 135.743 166.886 132.098 164.384 129.742C155.948 121.798 142.972 110.954 137.226 111.18C128.75 111.515 116.684 113.068 114.39 116.393C112.793 118.708 84.8357 138.548 65.6764 151.946C61.487 154.875 55.6879 153.467 53.2882 148.953V148.953C51.3498 145.307 52.3011 140.796 55.5467 138.242L151.821 62.5069C155.256 59.8048 155.708 54.769 152.81 51.4981V51.4981C150.118 48.4594 145.512 48.0747 142.353 50.6248L49.0874 125.908C44.5027 129.608 37.6457 127.826 35.4433 122.361L15.7404 73.4722C14.1949 69.6374 15.5377 65.2451 18.9554 62.9185C26.3465 57.887 34.0913 52.5627 40.7865 47.96L40.789 47.9583C50.6556 41.1753 58.2422 35.9598 59.0565 35.5587C60.6539 34.7718 67.7371 48.3477 72.5993 57.6667C74.9792 62.2281 76.827 65.7696 77.2389 66.1077C77.7986 66.5671 78.3329 66.3824 79.7196 65.9033C81.4381 65.3094 84.4657 64.2631 90.4731 63.4296C99.1571 62.2247 107.559 55.9277 110.675 52.9299L126.587 39.2155C129.843 36.4092 129.633 31.301 126.158 28.7708V28.7708C123.581 26.8942 120.049 27.1103 117.62 29.1745C106.015 39.0344 86.8391 52.1137 78.8541 45.5594C67.5747 36.3009 46.2516 -73.9062 45.9545 -81.4415C45.832 -84.5462 49.5812 -87.3651 54.2312 -89.6042C60.028 -92.3956 62.6541 -99.916 58.623 -104.93C29.3469 -141.347 -16.9981 -198.449 -20.5936 -200.647C-25.5642 -203.685 -49.908 -205.96 -61.9738 -204.406C-74.0396 -202.852 -149.66 -275.34 -152.252 -279.55C-154.293 -282.868 -57.1705 -472.356 -6.14972 -570.958C-4.70035 -573.759 -1.89351 -575.497 1.25782 -575.621L10.69 -575.993C15.927 -576.2 30.3303 -570.348 38.853 -566.522C40.5335 -565.767 41.9113 -564.48 42.8105 -562.873L108.845 -444.797C109.129 -444.29 109.452 -443.823 109.83 -443.383C121.098 -430.271 144.978 -403.712 154.771 -397.313C161.963 -392.613 158.617 -388.217 153.715 -381.777C150.132 -377.071 145.719 -371.272 143.978 -363.465C139.857 -344.974 159.27 -283.208 179.896 -282.943C194.614 -282.754 233.158 -293.167 256.336 -300.092C260.696 -301.395 263.271 -305.845 262.3 -310.29L233.263 -443.143C233.053 -444.107 232.681 -445.028 232.164 -445.868L226.599 -454.909C224.92 -457.638 221.905 -459.233 218.704 -459.083C185.682 -457.542 125.61 -455.945 113.478 -460.373C102.407 -464.414 77.1936 -515.564 61.3707 -550.797C58.4932 -557.204 64.0372 -564.108 70.9378 -562.798L132.219 -551.169C137.461 -550.175 140.919 -556.462 137.272 -560.356V-560.356C136.552 -561.125 135.626 -561.672 134.605 -561.931L49.204 -583.619C48.3862 -583.826 47.5427 -583.915 46.6996 -583.882L-12.2781 -581.556C-15.4496 -581.431 -18.271 -579.671 -19.7124 -576.844C-70.3346 -477.538 -167.873 -287.102 -170.669 -285.293ZM6.9962 83.4744C4.86622 78.4101 -1.31105 76.5833 -5.99816 79.4495C-7.65529 80.4628 -8.85524 81.1383 -9.47355 81.3861C-12.2087 82.4819 -20.1221 87.8566 -28.2435 93.3725L-28.2471 93.3748C-34.4875 97.613 -40.8502 101.934 -45.0805 104.462C-47.0437 105.635 -48.9015 107.363 -48.9551 109.65C-49.0386 113.21 -46.4523 114.712 -44.4046 115.902C-43.0998 116.66 -42.0137 117.291 -41.976 118.246C-41.888 120.478 -35.8721 126.083 -30.9099 130.706C-28.6941 132.771 -26.6875 134.64 -25.5138 135.925C-23.5558 138.069 -24.9318 155.055 -26.9297 171.997C-27.9106 180.316 -17.8022 185.488 -11.7661 179.68L26.0594 143.284C28.6727 140.77 29.469 136.907 28.063 133.564L6.9962 83.4744ZM226.677 -309.536C227.614 -306.73 230.434 -305.886 233.257 -306.771L248.366 -311.505C252.809 -312.897 255.39 -317.518 254.245 -322.031L224.624 -438.833C223.79 -442.12 221.136 -444.632 217.808 -445.284L216.751 -445.491C210.91 -446.635 205.648 -441.778 206.381 -435.872C211.655 -393.373 220.819 -327.094 226.677 -309.536ZM184.284 -440.865C183.677 -444.069 186.059 -447.063 189.317 -447.191V-447.191C192.008 -447.297 194.357 -445.381 194.793 -442.724L217.294 -305.766C217.65 -303.603 216.03 -301.618 213.84 -301.532V-301.532C212.035 -301.46 210.45 -302.722 210.113 -304.497L184.284 -440.865ZM138.611 -430.414C133.418 -435.955 137.101 -445.132 144.688 -445.431L166.011 -446.272C170.3 -446.441 174.081 -443.482 174.947 -439.279L201.606 -309.985C202.606 -305.135 199.398 -300.419 194.508 -299.639C186.036 -298.289 175.685 -296.793 170.869 -296.603C162.393 -296.269 157.849 -349.996 157.552 -357.532C157.255 -365.067 162.8 -378.223 167.473 -382.72C170.685 -385.81 167.486 -391.704 164.709 -396.819C163.445 -399.147 162.269 -401.313 161.824 -402.982C161.042 -405.91 149.555 -418.738 138.611 -430.414ZM-46.2071 -173.609C-46.3979 -178.449 -42.6288 -182.528 -37.7885 -182.719L-17.4929 -183.519C-5.38464 -183.996 11.7567 -149.094 11.884 -145.864C11.9763 -143.524 28.218 -118.638 38.6168 -103.044C40.466 -100.271 40.5788 -96.7022 39.0996 -93.7153C35.2533 -85.9488 30.4799 -74.0714 30.808 -65.7504C31.1837 -56.2207 44.6295 -11.6331 52.8665 14.4536C54.0289 18.1349 52.6686 22.1356 49.4588 24.2804C37.7536 32.102 20.9727 42.5102 19.2267 40.3635C17.1995 37.8711 -24.2198 -88.2968 -45.0389 -152.18C-45.2889 -152.947 -45.4228 -153.718 -45.4546 -154.524L-46.2071 -173.609ZM-7.02035 1.37073C-8.94131 -3.19662 -14.2521 -5.27216 -18.7512 -3.19645C-64.274 17.8058 -141.516 54.2376 -141.388 57.4776C-141.219 61.7835 -131.682 88.3608 -129.345 86.1124C-128.584 85.3807 -125.016 84.1956 -120.019 82.5367L-120.015 82.5353L-120.012 82.5344L-120.007 82.5329L-120.003 82.5315L-120 82.5306C-109.643 79.0933 -93.1693 73.6256 -82.8445 65.9507C-71.6993 57.666 -31.5535 33.3712 -7.73815 19.1942C-3.97135 16.9519 -2.43168 12.2809 -4.13121 8.24006L-7.02035 1.37073ZM-162.663 -249.844C-160.069 -254.955 -153.349 -256.246 -149.047 -252.459L-127.077 -233.125C-124.26 -230.645 -123.325 -226.667 -124.757 -223.198C-139.713 -186.967 -165.483 -123.027 -165.258 -117.317C-164.961 -109.782 -149.223 -48.9489 -138.113 -43.9962C-127.004 -39.0436 -113.6 -37.4158 -107.588 -38.731C-103.276 -39.6743 -64.1676 -56.4929 -39.228 -67.3618C-34.8285 -69.2792 -29.7182 -67.2298 -27.8576 -62.806V-62.806C-26.0268 -58.4529 -28.0485 -53.4378 -32.3866 -51.5716L-157.777 2.36979C-161.997 4.18542 -166.904 2.43632 -169.024 -1.63973L-227.48 -114.018C-228.785 -116.528 -228.8 -119.513 -227.52 -122.035L-162.663 -249.844ZM-111.559 -207.482C-109.417 -212.709 -102.968 -214.583 -98.3311 -211.357C-81.7167 -199.798 -59.1779 -184.75 -57.6199 -186.249C-56.064 -187.746 -59.021 -178.71 -61.5305 -171.641C-62.4156 -169.149 -64.4074 -167.216 -66.9121 -166.366L-120.103 -148.294C-127.228 -145.874 -133.893 -152.96 -131.04 -159.924L-111.559 -207.482ZM-56.7305 -145.113C-58.5309 -149.394 -63.3557 -151.529 -67.7347 -149.983L-137.676 -125.297C-140.638 -124.251 -142.835 -121.706 -143.271 -118.595C-144.62 -108.96 -145.426 -95.4732 -141.276 -93.4657C-136.757 -91.2792 -87.5257 -111.086 -57.235 -123.878C-52.7942 -125.754 -50.7396 -130.869 -52.6085 -135.312L-56.7305 -145.113ZM-50.8703 -107.196C-46.2708 -108.9 -41.1676 -106.501 -39.5454 -101.872L-36.8698 -94.2369C-35.4028 -90.0506 -37.2825 -85.4312 -41.2698 -83.4874C-63.2324 -72.7804 -97.8664 -56.3644 -102.213 -56.193C-105.371 -56.0685 -110.724 -54.9407 -115.286 -53.8239C-118.982 -52.919 -122.893 -54.3429 -125.009 -57.5055L-130.74 -66.0697C-133.893 -70.7816 -131.814 -77.2019 -126.498 -79.1719L-50.8703 -107.196ZM-28.7568 -35.2348C-24.1505 -37.2479 -18.7981 -34.9853 -17.0324 -30.2787L-16.3148 -28.366C-14.7232 -24.1233 -16.6254 -19.3667 -20.7036 -17.3915L-139.181 39.9923C-143.425 42.0479 -148.535 40.3796 -150.749 36.2155L-154.127 29.8602C-156.525 25.3495 -154.576 19.752 -149.895 17.7063L-28.7568 -35.2348ZM102.382 194.622C99.9615 200.336 92.5358 201.798 88.1295 197.429L68.0199 177.489C64.1922 173.693 64.6618 167.376 69.0087 164.188L90.0794 148.735C92.9923 146.599 96.9169 146.467 99.9667 148.403L111.024 155.421C114.645 157.719 116.073 162.299 114.4 166.247L102.382 194.622ZM17.1321 176.121C15.6561 172.459 16.8094 168.262 19.9495 165.868L32.0742 156.624C35.0281 154.372 39.0928 154.208 42.159 156.304C43.2159 157.027 44.096 157.648 44.4794 157.963C44.9071 158.314 45.7157 161.161 46.7963 164.966C48.8822 172.311 51.9817 183.225 55.312 186.645C58.7492 190.175 73.8958 203.366 84.273 212.309C87.2148 214.844 88.1485 219.006 86.5644 222.551L79.9885 237.27C78.2481 241.165 73.9502 243.215 70.0988 241.379C58.787 235.986 43.6353 224.806 35.1878 218.025C34.041 217.104 33.1642 215.902 32.6144 214.538L17.1321 176.121ZM8.1223 191.076C5.56084 185.664 -1.54892 184.374 -5.86327 188.525L-35.1484 216.703C-36.9536 218.44 -37.9299 220.866 -37.8312 223.369L-36.651 253.302C-36.5091 256.899 -34.1837 260.044 -30.7861 261.234L55.242 291.365C59.6823 292.92 64.5588 290.695 66.2939 286.322L74.0554 266.759C75.9324 262.028 73.4066 256.703 68.6037 255.019C52.5864 249.401 30.741 240.412 28.0772 234.079C25.5304 228.023 15.629 206.935 8.1223 191.076Z" stroke="white" stroke-width="5" stroke-linecap="round" stroke-linejoin="round"/>
</svg>
