<svg width="68" height="32" viewBox="0 0 68 32" fill="none" xmlns="http://www.w3.org/2000/svg">
<path d="M0 15.3938C0 15.2044 0.1535 15.0509 0.342851 15.0509H1.95875C2.1481 15.0509 2.3016 15.2044 2.3016 15.3938V31.1969C2.3016 31.3863 2.1481 31.5398 1.95875 31.5398H0.342851C0.1535 31.5398 0 31.3863 0 31.1969V15.3938Z" fill="#1F6AEC"/>
<path d="M5.73682 19.9377C5.73682 19.7061 5.9246 19.5183 6.15623 19.5183H7.6949V21.2244C8.27507 20.521 8.88959 20.0159 9.53847 19.7091C10.1873 19.4023 10.9087 19.2489 11.7027 19.2489C13.4432 19.2489 14.6188 19.8438 15.2295 21.0336C15.5654 21.6846 15.7333 22.6163 15.7333 23.8285V31.3112C15.7333 31.4375 15.631 31.5398 15.5048 31.5398H13.8664C13.7402 31.5398 13.6378 31.4375 13.6378 31.3112V23.9632C13.6378 23.2299 13.5271 22.6387 13.3058 22.1897C12.9393 21.4414 12.2752 21.0673 11.3133 21.0673C10.8248 21.0673 10.424 21.1159 10.111 21.2132C9.5461 21.3778 9.0499 21.7071 8.62241 22.201C8.27889 22.5976 8.05369 23.0091 7.94682 23.4357C7.84758 23.8547 7.79796 24.4571 7.79796 25.2428V31.3112C7.79796 31.4375 7.69562 31.5398 7.56939 31.5398H5.96539C5.83916 31.5398 5.73682 31.4375 5.73682 31.3112V19.9377Z" fill="#1F6AEC"/>
<path d="M19.9115 27.7683C19.9706 27.7683 20.0199 27.8135 20.0263 27.8723C20.0952 28.4952 20.2634 28.9769 20.5312 29.3173C21.0503 29.9684 21.9511 30.2939 23.2336 30.2939C23.9969 30.2939 24.6687 30.133 25.2489 29.8112C25.8291 29.482 26.1191 28.9769 26.1191 28.2959C26.1191 27.7796 25.8863 27.3867 25.4207 27.1173C25.1229 26.9527 24.5351 26.7619 23.6572 26.5449L22.0198 26.1408C20.9739 25.8864 20.2029 25.602 19.7067 25.2877C18.8212 24.7415 18.3784 23.9857 18.3784 23.0203C18.3784 21.8829 18.7945 20.9625 19.6266 20.2591C20.4663 19.5557 21.5923 19.204 23.0045 19.204C24.8519 19.204 26.184 19.7353 27.0009 20.7979C27.4877 21.4389 27.7359 22.1274 27.7455 22.8634C27.7463 22.9256 27.6953 22.9755 27.6331 22.9755H25.9037C25.8442 22.9755 25.795 22.9298 25.7875 22.8709C25.7344 22.4554 25.5739 22.0749 25.3061 21.7295C24.8328 21.1982 24.0122 20.9326 22.8442 20.9326C22.0656 20.9326 21.474 21.0785 21.0694 21.3703C20.6724 21.6622 20.4739 22.0476 20.4739 22.5265C20.4739 23.0503 20.7373 23.4693 21.264 23.7836C21.5694 23.9707 22.0198 24.1353 22.6152 24.2775L23.9779 24.603C25.4588 24.9547 26.4512 25.2952 26.955 25.6244C27.7566 26.1408 28.1574 26.9527 28.1574 28.0602C28.1574 29.1303 27.7413 30.0544 26.9092 30.8327C26.0848 31.6109 24.8252 32 23.1305 32C21.306 32 20.0121 31.5959 19.2487 30.7878C18.5182 29.9993 18.1158 29.0327 18.0415 27.8877C18.0372 27.8227 18.0893 27.7683 18.1544 27.7683H19.9115Z" fill="#1F6AEC"/>
<path d="M30.9285 16.3907C30.9285 16.2645 31.0308 16.1621 31.157 16.1621H32.7839C32.9102 16.1621 33.0125 16.2645 33.0125 16.3907V19.5183H34.8563C34.9194 19.5183 34.9706 19.5694 34.9706 19.6326V21.054C34.9706 21.1171 34.9194 21.1683 34.8563 21.1683H33.0125V29.0143C33.0125 29.4333 33.1575 29.7139 33.4476 29.8561C33.6079 29.9384 33.8751 29.9796 34.2492 29.9796C34.3484 29.9796 34.4553 29.9796 34.5698 29.9796C34.6518 29.9742 34.7435 29.967 34.8451 29.9578C34.9123 29.9517 34.9706 30.0044 34.9706 30.0719V31.4535C34.9706 31.5046 34.9367 31.5496 34.8873 31.5626C34.6759 31.6182 34.4556 31.6593 34.2263 31.6857C33.9744 31.7157 33.6995 31.7306 33.4018 31.7306C32.44 31.7306 31.7873 31.4912 31.4437 31.0122C31.1002 30.5258 30.9285 29.8973 30.9285 29.1265V21.1683H29.3824C29.3193 21.1683 29.2681 21.1171 29.2681 21.054V19.6326C29.2681 19.5694 29.3193 19.5183 29.3824 19.5183H30.9285V16.3907Z" fill="#1F6AEC"/>
<path d="M37.1004 19.7468C37.1004 19.6206 37.2027 19.5183 37.329 19.5183H38.8299C38.9562 19.5183 39.0585 19.6206 39.0585 19.7469V21.5948C39.2188 21.1907 39.6119 20.7006 40.2379 20.1244C40.8639 19.5407 41.5853 19.2489 42.4021 19.2489C42.4403 19.2489 42.5052 19.2526 42.5968 19.2601C42.6735 19.2664 42.7957 19.2779 42.9635 19.2947C43.0218 19.3005 43.0662 19.3496 43.0662 19.4083V21.3005C43.0662 21.3719 43.0015 21.4256 42.9309 21.4154C42.8585 21.405 42.7892 21.3974 42.7227 21.3928C42.6235 21.3853 42.5128 21.3816 42.3907 21.3816C41.3525 21.3816 40.5547 21.7108 39.9974 22.3693C39.4402 23.0203 39.1615 23.7724 39.1615 24.6255V31.3112C39.1615 31.4375 39.0592 31.5398 38.933 31.5398H37.329C37.2027 31.5398 37.1004 31.4375 37.1004 31.3112V19.7468Z" fill="#1F6AEC"/>
<path d="M46.4328 28.3408C46.4328 28.9245 46.6503 29.3847 47.0855 29.7214C47.5206 30.0582 48.0359 30.2265 48.6313 30.2265C49.3565 30.2265 50.0588 30.0619 50.7382 29.7326C51.8833 29.1864 52.4559 28.2922 52.4559 27.05V25.4224C52.2039 25.5796 51.8795 25.7105 51.4825 25.8153C51.0856 25.92 50.6963 25.9949 50.3146 26.0398L49.0664 26.1969C48.3183 26.2942 47.7572 26.4476 47.3832 26.6571C46.7496 27.0088 46.4328 27.57 46.4328 28.3408ZM51.4253 24.2551C51.8986 24.1952 52.2154 24.0006 52.3757 23.6714C52.4673 23.4918 52.5131 23.2336 52.5131 22.8969C52.5131 22.2084 52.2612 21.7108 51.7574 21.404C51.2612 21.0897 50.5474 20.9326 49.6161 20.9326C48.5397 20.9326 47.7763 21.2169 47.3259 21.7856C47.1018 22.0652 46.9472 22.4661 46.8621 22.9885C46.8435 23.1024 46.7468 23.1887 46.6313 23.1887H45.1444C45.0158 23.1887 44.9121 23.0825 44.9199 22.9542C45.0017 21.598 45.4869 20.6472 46.3755 20.102C47.3221 19.5183 48.4176 19.2264 49.6619 19.2264C51.1047 19.2264 52.2765 19.4958 53.1772 20.0346C54.0704 20.5734 54.517 21.4115 54.517 22.5489V29.4745C54.517 29.684 54.559 29.8524 54.6429 29.9796C54.7346 30.1068 54.9216 30.1704 55.204 30.1704C55.2956 30.1704 55.3987 30.1667 55.5132 30.1592C55.5875 30.1495 55.665 30.1382 55.7457 30.1253C55.8157 30.1142 55.8796 30.1679 55.8796 30.2388V31.5092C55.8796 31.5605 55.8455 31.6055 55.7961 31.619C55.5162 31.6954 55.2998 31.7438 55.1468 31.7643C54.9788 31.7867 54.7498 31.798 54.4597 31.798C53.7498 31.798 53.2345 31.551 52.9139 31.0571C52.7459 30.7952 52.6276 30.4248 52.5589 29.9459C52.1391 30.4847 51.536 30.9524 50.7497 31.349C49.9634 31.7456 49.097 31.9439 48.1504 31.9439C47.0129 31.9439 46.0816 31.6071 45.3564 30.9337C44.6388 30.2527 44.28 29.4034 44.28 28.3857C44.28 27.2707 44.635 26.4064 45.3449 25.7928C46.0549 25.1792 46.9862 24.8013 48.1389 24.6591L51.4253 24.2551Z" fill="#1F6AEC"/>
<path d="M57.9064 19.9173C57.9064 19.7279 58.0599 19.5744 58.2493 19.5744H59.659C59.8484 19.5744 60.0019 19.7279 60.0019 19.9173V31.1969C60.0019 31.3863 59.8484 31.5398 59.659 31.5398H58.2493C58.0599 31.5398 57.9064 31.3863 57.9064 31.1969V19.9173Z" fill="#1F6AEC"/>
<path d="M63.1852 15.3938C63.1852 15.2044 63.3387 15.0509 63.528 15.0509H64.9035C65.0928 15.0509 65.2463 15.2044 65.2463 15.3938V31.1969C65.2463 31.3863 65.0928 31.5398 64.9035 31.5398H63.528C63.3387 31.5398 63.1852 31.3863 63.1852 31.1969V15.3938Z" fill="#1F6AEC"/>
<g clip-path="url(#clip0)">
<path d="M61.7039 6.6333C59.7665 7.78852 59.5492 10.2654 59.6265 11.8339C61.1 10.1359 62.9158 9.23618 63.9526 9.06652C62.2855 9.70674 61.0293 10.9815 59.9846 12.389C59.5631 13.1132 59.1752 13.8218 58.9551 14.6039C58.7146 13.688 58.3042 12.8317 57.8615 11.9566C56.6179 10.0572 55.0895 8.31414 52.981 7.36199C54.3098 7.65831 56.5915 8.95735 58.3677 11.2646C58.589 9.24011 58.4978 6.01736 56.0794 4.37895C53.4185 2.57646 50.0596 1.96146 48.4008 1.75896C48.0239 1.71298 47.7619 2.11842 47.9678 2.43134C48.5109 3.25674 49.2486 4.72635 49.3574 6.73343C49.4657 8.73942 49.5913 12.4461 56.8982 12.9998C57.9835 14.9441 58.518 15.9806 58.7156 17.8386C58.7306 17.9796 58.9338 17.9929 58.9682 17.8552C59.1027 17.3172 59.4564 14.6114 60.6785 13.2346C66.3301 13.13 66.5964 10.2817 66.7722 8.74201C66.9329 7.32936 67.4803 6.28806 67.9216 5.6534C68.1328 5.34969 67.8893 4.94096 67.5154 4.97013C66.1677 5.07532 63.7199 5.43162 61.7039 6.6333Z" fill="#00DDC0"/>
</g>
<defs>
<clipPath id="clip0">
<rect width="20.1043" height="19.7072" fill="white" transform="translate(47.8955)"/>
</clipPath>
</defs>
</svg>
