<svg xmlns="http://www.w3.org/2000/svg" width="36" height="28" fill="none"><path fill="#4793FF" d="M18.257 17.164v6.328c0 .831-.539 1.99-3.105 2.794-1.624.51-3.763.79-6.023.79h-.001c-2.26 0-4.4-.28-6.024-.79C.54 25.483 0 24.323 0 23.492v-6.328h18.257Z"/><path fill="#525CDD" d="M9.129 17.164h9.128v6.328c0 .831-.539 1.99-3.104 2.794-1.625.51-3.764.79-6.024.79v-9.912Z"/><path fill="#5E54AC" d="M18.257 10.836v6.328c0 .831-.539 1.99-3.105 2.794-1.624.51-3.763.79-6.023.79h-.001c-2.26 0-4.4-.28-6.024-.79C.54 19.155 0 17.995 0 17.164v-6.328h18.257Z"/><path fill="#453D81" d="M9.129 10.836h9.128v6.328c0 .831-.539 1.99-3.104 2.794-1.625.51-3.764.79-6.024.79v-9.912Z"/><path fill="#4793FF" d="M18.257 4.508v6.328c0 .831-.539 1.99-3.105 2.794-1.624.51-3.763.79-6.023.79h-.001c-2.26 0-4.4-.28-6.024-.79C.54 12.826 0 11.667 0 10.836V4.508h18.257Z"/><path fill="#525CDD" d="M18.257 4.508v6.328c0 .831-.539 1.99-3.104 2.794-1.625.51-3.764.79-6.024.79V4.507h9.128Z"/><path fill="#A8EBFA" d="M18.257 4.508c0 .83-.539 1.99-3.105 2.794-1.624.509-3.763.789-6.023.789h-.001c-2.26 0-4.4-.28-6.024-.79C.54 6.499 0 5.34 0 4.509c0-.831.539-1.99 3.104-2.795C4.73 1.204 6.867.925 9.128.925s4.4.28 6.024.788c2.566.804 3.105 1.964 3.105 2.795Z"/><path fill="#7DD5F4" d="M15.153 7.302c-1.625.509-3.764.789-6.024.789V.925c2.26 0 4.4.28 6.024.788 2.565.804 3.104 1.964 3.104 2.795 0 .83-.539 1.99-3.104 2.794Z"/><path fill="#5E54AC" d="M34.358 9.533v3.843a1.055 1.055 0 0 1-2.11 0V9.533a4.07 4.07 0 0 0-4.065-4.065 4.07 4.07 0 0 0-4.066 4.065v3.843a1.055 1.055 0 1 1-2.11 0V9.533a6.182 6.182 0 0 1 6.176-6.174 6.182 6.182 0 0 1 6.175 6.174Z"/><path fill="#453D81" d="M34.358 9.533v3.843a1.055 1.055 0 0 1-2.11 0V9.533a4.07 4.07 0 0 0-4.065-4.065v-2.11a6.182 6.182 0 0 1 6.175 6.175Z"/><path fill="#FABE2C" d="M36 13.376v10.21c0 .583-.472 1.055-1.054 1.055H21.42a1.055 1.055 0 0 1-1.055-1.055v-10.21c0-.582.473-1.055 1.055-1.055h13.525c.582 0 1.054.473 1.054 1.055Z"/><path fill="#FF9100" d="M36 13.376v10.21c0 .583-.472 1.055-1.055 1.055h-6.762V12.32h6.762c.583 0 1.055.473 1.055 1.055Z"/><path fill="#DFE7F4" d="M30.333 19.38a.899.899 0 1 0 0-1.798.899.899 0 0 0 0 1.798Z"/><path fill="#F0F7FF" d="M26.033 19.38a.899.899 0 1 0 0-1.798.899.899 0 0 0 0 1.798Z"/></svg>