<svg xmlns="http://www.w3.org/2000/svg" width="24" height="36" fill="none"><path fill="#5E54AC" d="M13.055 13.369v4.922a1.055 1.055 0 0 1-2.11 0v-4.922a1.055 1.055 0 0 1 2.11 0ZM13.055 26.728v4.343a1.055 1.055 0 0 1-2.11 0v-4.343a1.055 1.055 0 0 1 2.11 0Z"/><path fill="#4793FF" d="M23.988 19.744v5.53a2.51 2.51 0 0 1-2.508 2.509H2.52a2.51 2.51 0 0 1-2.508-2.508v-5.531a2.51 2.51 0 0 1 2.508-2.508h18.96a2.51 2.51 0 0 1 2.508 2.508Z"/><path fill="#453D81" d="M13.055 13.369v4.922c0 .582-.473 1.054-1.055 1.054v-7.031c.582 0 1.055.473 1.055 1.055ZM13.055 26.728v4.343c0 .582-.473 1.055-1.055 1.055v-6.453c.582 0 1.055.473 1.055 1.055Z"/><path fill="#525CDD" d="M23.988 19.744v5.53a2.51 2.51 0 0 1-2.508 2.509H12V17.236h9.48a2.51 2.51 0 0 1 2.508 2.508Z"/><path fill="#5E54AC" d="M13.055 1.055V4.93a1.055 1.055 0 0 1-2.11 0V1.055a1.055 1.055 0 0 1 2.11 0Z"/><path fill="#4793FF" d="M23.988 6.385v5.53a2.51 2.51 0 0 1-2.508 2.508H2.52a2.51 2.51 0 0 1-2.508-2.508v-5.53A2.51 2.51 0 0 1 2.52 3.876h18.96a2.51 2.51 0 0 1 2.508 2.509Z"/><path fill="#453D81" d="M13.055 1.055V4.93c0 .582-.473 1.055-1.055 1.055V0c.582 0 1.055.472 1.055 1.055Z"/><path fill="#525CDD" d="M23.988 6.385v5.53a2.51 2.51 0 0 1-2.508 2.508H12V3.876h9.48a2.51 2.51 0 0 1 2.508 2.509Z"/><path fill="#5E54AC" d="M9.89 34.235H1.067a1.055 1.055 0 0 1 0-2.11h8.825a1.055 1.055 0 1 1 0 2.11Z"/><path fill="#453D81" d="M22.934 34.235h-8.825a1.055 1.055 0 1 1 0-2.11h8.825a1.055 1.055 0 1 1 0 2.11Z"/><path fill="#FABE2C" d="M12 36a2.82 2.82 0 1 0 0-5.639 2.82 2.82 0 0 0 0 5.64Z"/><path fill="#F0F7FF" d="M5.285 10.262a1.113 1.113 0 1 0 0-2.225 1.113 1.113 0 0 0 0 2.225ZM9.62 10.262a1.113 1.113 0 1 0 0-2.225 1.113 1.113 0 0 0 0 2.225Z"/><path fill="#DFE7F4" d="M18.715 10.205h-4.876a1.055 1.055 0 0 1 0-2.11h4.876a1.055 1.055 0 0 1 0 2.11Z"/><path fill="#F0F7FF" d="M5.285 23.622a1.113 1.113 0 1 0 0-2.226 1.113 1.113 0 0 0 0 2.226ZM9.62 23.622a1.113 1.113 0 1 0 0-2.226 1.113 1.113 0 0 0 0 2.226Z"/><path fill="#DFE7F4" d="M18.715 23.564h-4.876a1.055 1.055 0 0 1 0-2.11h4.876a1.055 1.055 0 1 1 0 2.11Z"/><path fill="#FF9100" d="M14.82 33.18A2.823 2.823 0 0 1 12 36v-5.639a2.823 2.823 0 0 1 2.82 2.82Z"/></svg>