<svg width="16" height="17" viewBox="0 0 16 17" fill="none" xmlns="http://www.w3.org/2000/svg">
<path d="M4.11325 12.0384C4.25099 11.6481 4.50641 11.31 4.84432 11.0709C5.18223 10.8318 5.58598 10.7035 5.99992 10.7035C6.41386 10.7035 6.81761 10.8318 7.15552 11.0709C7.49343 11.31 7.74885 11.6481 7.88659 12.0384H14.6666V13.3718H7.88659C7.74885 13.7621 7.49343 14.1001 7.15552 14.3392C6.81761 14.5783 6.41386 14.7067 5.99992 14.7067C5.58598 14.7067 5.18223 14.5783 4.84432 14.3392C4.50641 14.1001 4.25099 13.7621 4.11325 13.3718H1.33325V12.0384H4.11325ZM8.11325 7.37175C8.25099 6.9814 8.50641 6.64337 8.84432 6.40428C9.18223 6.16518 9.58598 6.03678 9.99992 6.03678C10.4139 6.03678 10.8176 6.16518 11.1555 6.40428C11.4934 6.64337 11.7489 6.9814 11.8866 7.37175H14.6666V8.70508H11.8866C11.7489 9.09544 11.4934 9.43346 11.1555 9.67256C10.8176 9.91165 10.4139 10.0401 9.99992 10.0401C9.58598 10.0401 9.18223 9.91165 8.84432 9.67256C8.50641 9.43346 8.25099 9.09544 8.11325 8.70508H1.33325V7.37175H8.11325ZM4.11325 2.70508C4.25099 2.31473 4.50641 1.97671 4.84432 1.73761C5.18223 1.49851 5.58598 1.37012 5.99992 1.37012C6.41386 1.37012 6.81761 1.49851 7.15552 1.73761C7.49343 1.97671 7.74885 2.31473 7.88659 2.70508H14.6666V4.03842H7.88659C7.74885 4.42877 7.49343 4.7668 7.15552 5.00589C6.81761 5.24499 6.41386 5.37338 5.99992 5.37338C5.58598 5.37338 5.18223 5.24499 4.84432 5.00589C4.50641 4.7668 4.25099 4.42877 4.11325 4.03842H1.33325V2.70508H4.11325ZM5.99992 4.03842C6.17673 4.03842 6.3463 3.96818 6.47132 3.84316C6.59635 3.71813 6.66659 3.54856 6.66659 3.37175C6.66659 3.19494 6.59635 3.02537 6.47132 2.90035C6.3463 2.77532 6.17673 2.70508 5.99992 2.70508C5.82311 2.70508 5.65354 2.77532 5.52851 2.90035C5.40349 3.02537 5.33325 3.19494 5.33325 3.37175C5.33325 3.54856 5.40349 3.71813 5.52851 3.84316C5.65354 3.96818 5.82311 4.03842 5.99992 4.03842ZM9.99992 8.70508C10.1767 8.70508 10.3463 8.63485 10.4713 8.50982C10.5963 8.3848 10.6666 8.21523 10.6666 8.03842C10.6666 7.86161 10.5963 7.69204 10.4713 7.56701C10.3463 7.44199 10.1767 7.37175 9.99992 7.37175C9.82311 7.37175 9.65354 7.44199 9.52851 7.56701C9.40349 7.69204 9.33325 7.86161 9.33325 8.03842C9.33325 8.21523 9.40349 8.3848 9.52851 8.50982C9.65354 8.63485 9.82311 8.70508 9.99992 8.70508ZM5.99992 13.3718C6.17673 13.3718 6.3463 13.3015 6.47132 13.1765C6.59635 13.0515 6.66659 12.8819 6.66659 12.7051C6.66659 12.5283 6.59635 12.3587 6.47132 12.2337C6.3463 12.1087 6.17673 12.0384 5.99992 12.0384C5.82311 12.0384 5.65354 12.1087 5.52851 12.2337C5.40349 12.3587 5.33325 12.5283 5.33325 12.7051C5.33325 12.8819 5.40349 13.0515 5.52851 13.1765C5.65354 13.3015 5.82311 13.3718 5.99992 13.3718Z" fill="#3A434B"/>
</svg>
