<svg width="16" height="16" viewBox="0 0 16 16" fill="none" xmlns="http://www.w3.org/2000/svg">
<path d="M2.64286 0.5C1.45939 0.5 0.5 1.45939 0.5 2.64286V6.48214C0.5 7.66561 1.45939 8.625 2.64286 8.625H4.78571C5.96918 8.625 6.92857 7.66561 6.92857 6.48214V2.64286C6.92857 1.45939 5.96918 0.5 4.78571 0.5H2.64286Z" fill="#B9C8D4"/>
<path d="M2.64286 10.2321C1.45939 10.2321 0.5 11.1915 0.5 12.375V13.3571C0.5 14.5406 1.45939 15.5 2.64286 15.5H4.78571C5.96918 15.5 6.92857 14.5406 6.92857 13.3571V12.375C6.92857 11.1915 5.96918 10.2321 4.78571 10.2321H2.64286Z" fill="#B9C8D4"/>
<path d="M9.07143 2.64286C9.07143 1.45939 10.0308 0.5 11.2143 0.5H13.3571C14.5406 0.5 15.5 1.45939 15.5 2.64286V3.50742C15.5 4.69088 14.5406 5.65027 13.3571 5.65027H11.2143C10.0308 5.65027 9.07143 4.69088 9.07143 3.50742V2.64286Z" fill="#B9C8D4"/>
<path d="M9.07143 9.51786C9.07143 8.33439 10.0308 7.375 11.2143 7.375H13.3571C14.5406 7.375 15.5 8.33439 15.5 9.51786V13.3571C15.5 14.5406 14.5406 15.5 13.3571 15.5H11.2143C10.0308 15.5 9.07143 14.5406 9.07143 13.3571V9.51786Z" fill="#B9C8D4"/>
</svg>
