<svg xmlns="http://www.w3.org/2000/svg" width="36" height="36" fill="none"><path fill="#5E54AC" d="M19.055 23.921v6.805a1.055 1.055 0 0 1-2.11 0v-6.805a1.055 1.055 0 0 1 2.11 0Z"/><path fill="#453D81" d="M19.055 23.921v6.805c0 .582-.473 1.055-1.055 1.055v-8.914c.582 0 1.055.472 1.055 1.054ZM28.312 32.584l-4.553-2.922a1.055 1.055 0 0 1-.486-.888v-4.853a1.055 1.055 0 0 1 2.11 0v4.277l4.068 2.61a1.055 1.055 0 0 1-1.14 1.776Z"/><path fill="#5E54AC" d="M6.23 32.266a1.055 1.055 0 0 1 .319-1.457l4.068-2.611v-4.277a1.055 1.055 0 1 1 2.11 0v4.853c0 .36-.183.694-.486.888l-4.553 2.922a1.055 1.055 0 0 1-1.457-.318Z"/><path fill="#FFE14D" d="M18 36a3.164 3.164 0 1 0 0-6.328A3.164 3.164 0 0 0 18 36Z"/><path fill="#FABE2C" d="M30.656 36a3.164 3.164 0 1 0 0-6.328 3.164 3.164 0 0 0 0 6.328Z"/><path fill="#FFE14D" d="M5.344 36a3.164 3.164 0 1 0 0-6.328 3.164 3.164 0 0 0 0 6.328Z"/><path fill="#FABE2C" d="M21.164 32.836A3.168 3.168 0 0 1 18 36v-6.328a3.168 3.168 0 0 1 3.164 3.164Z"/><path fill="#4793FF" d="M29.988 16.83v5.53a2.51 2.51 0 0 1-2.508 2.507H8.52a2.51 2.51 0 0 1-2.508-2.508v-5.53a2.511 2.511 0 0 1 2.508-2.508h18.96a2.511 2.511 0 0 1 2.508 2.508Z"/><path fill="#525CDD" d="M29.988 16.83v5.53a2.51 2.51 0 0 1-2.508 2.507H18V14.321h9.48a2.511 2.511 0 0 1 2.508 2.508Z"/><path fill="#DFE7F4" d="M24.715 20.707a1.113 1.113 0 1 0 0-2.225 1.113 1.113 0 0 0 0 2.225Z"/><path fill="#F0F7FF" d="M15.458 20.65h-4.876a1.055 1.055 0 0 1 0-2.11h4.876a1.055 1.055 0 1 1 0 2.11Z"/><path fill="#5E54AC" d="M22.103 7.94a1.053 1.053 0 0 1-1.491 0A3.67 3.67 0 0 0 18 6.857a3.67 3.67 0 0 0-2.612 1.081 1.054 1.054 0 1 1-1.492-1.491A5.763 5.763 0 0 1 18 4.748c1.55 0 3.008.604 4.103 1.7.412.412.412 1.08 0 1.491Z"/><path fill="#5E54AC" d="M25.46 4.582c-.409.41-1.078.413-1.491 0A8.383 8.383 0 0 0 18 2.11a8.383 8.383 0 0 0-5.969 2.473 1.055 1.055 0 0 1-1.492-1.491A10.478 10.478 0 0 1 18 0c2.819 0 5.469 1.098 7.46 3.09.413.413.412 1.08 0 1.492ZM18 11.606a1.055 1.055 0 1 0 0-2.11 1.055 1.055 0 0 0 0 2.11Z"/><path fill="#453D81" d="M19.055 10.551c0 .582-.473 1.055-1.055 1.055v-2.11c.582 0 1.055.472 1.055 1.055ZM22.103 6.448a1.054 1.054 0 1 1-1.49 1.491A3.67 3.67 0 0 0 18 6.858v-2.11c1.55 0 3.008.604 4.103 1.7ZM25.46 4.582c-.409.41-1.078.413-1.491 0A8.383 8.383 0 0 0 18 2.11V0c2.819 0 5.469 1.098 7.46 3.09.413.413.412 1.08 0 1.492Z"/></svg>