<svg width="71" height="34" viewBox="0 0 71 34" fill="none" xmlns="http://www.w3.org/2000/svg">
<path d="M0.088623 16.3521C0.088623 16.153 0.24999 15.9916 0.449047 15.9916H2.12535C2.3244 15.9916 2.48577 16.153 2.48577 16.3521V33.1507C2.48577 33.3497 2.3244 33.5111 2.12535 33.5111H0.449047C0.24999 33.5111 0.088623 33.3497 0.088623 33.1507V16.3521Z" fill="#1F6AEC"/>
<path d="M6.0636 21.1791C6.0636 20.9356 6.261 20.7382 6.50451 20.7382H8.10297V22.551C8.70722 21.8036 9.34726 21.267 10.0231 20.941C10.6989 20.615 11.4502 20.452 12.2771 20.452C14.0899 20.452 15.3143 21.0841 15.9503 22.3483C16.3002 23.04 16.4751 24.0298 16.4751 25.3179V33.2708C16.4751 33.4035 16.3675 33.5111 16.2348 33.5111H14.5329C14.4002 33.5111 14.2926 33.4035 14.2926 33.2708V25.461C14.2926 24.6818 14.1773 24.0537 13.9468 23.5766C13.5651 22.7816 12.8734 22.384 11.8716 22.384C11.3628 22.384 10.9454 22.4357 10.6194 22.5391C10.031 22.714 9.51422 23.0638 9.06898 23.5886C8.7112 24.01 8.47665 24.4472 8.36534 24.9004C8.26198 25.3457 8.2103 25.9857 8.2103 26.8205V33.2708C8.2103 33.4035 8.10272 33.5111 7.97002 33.5111H6.30388C6.17118 33.5111 6.0636 33.4035 6.0636 33.2708V21.1791Z" fill="#1F6AEC"/>
<path d="M20.8255 29.5039C20.8878 29.5039 20.9395 29.5516 20.9462 29.6134C21.0178 30.2757 21.1931 30.7878 21.4721 31.1497C22.0128 31.8414 22.951 32.1873 24.2867 32.1873C25.0818 32.1873 25.7814 32.0164 26.3857 31.6745C26.9899 31.3246 27.2921 30.788 27.2921 30.0644C27.2921 29.5158 27.0496 29.0984 26.5646 28.8122C26.2545 28.6373 25.6423 28.4345 24.728 28.204L23.0225 27.7746C21.9333 27.5043 21.1302 27.2022 20.6135 26.8682C19.6912 26.2878 19.23 25.4848 19.23 24.4592C19.23 23.2507 19.6633 22.2727 20.53 21.5254C21.4046 20.778 22.5773 20.4043 24.0482 20.4043C25.9722 20.4043 27.3597 20.9688 28.2104 22.0978C28.7177 22.7793 28.9762 23.5112 28.986 24.2936C28.9868 24.359 28.9332 24.4115 28.8677 24.4115H27.0688C27.0063 24.4115 26.9545 24.3634 26.9468 24.3013C26.8916 23.8595 26.7244 23.4549 26.4453 23.0877C25.9524 22.5232 25.0977 22.2409 23.8812 22.2409C23.0702 22.2409 22.454 22.396 22.0327 22.706C21.6192 23.0161 21.4125 23.4256 21.4125 23.9344C21.4125 24.491 21.6868 24.9362 22.2354 25.2701C22.5534 25.4689 23.0225 25.6438 23.6427 25.7949L25.0619 26.1408C26.6043 26.5144 27.6379 26.8762 28.1627 27.226C28.9975 27.7746 29.4149 28.6373 29.4149 29.814C29.4149 30.951 28.9816 31.9329 28.115 32.7597C27.2563 33.5866 25.9444 34.0001 24.1794 34.0001C22.2791 34.0001 20.9315 33.5707 20.1364 32.712C19.3753 31.874 18.9561 30.8464 18.879 29.6293C18.8746 29.561 18.9293 29.5039 18.9978 29.5039H20.8255Z" fill="#1F6AEC"/>
<path d="M32.301 17.4126C32.301 17.2799 32.4086 17.1723 32.5413 17.1723H34.2313C34.364 17.1723 34.4716 17.2799 34.4716 17.4126V20.7382H36.3908C36.4572 20.7382 36.511 20.792 36.511 20.8584V22.3712C36.511 22.4376 36.4572 22.4914 36.3908 22.4914H34.4716V30.8277C34.4716 31.273 34.6227 31.5711 34.9248 31.7222C35.0917 31.8096 35.37 31.8534 35.7596 31.8534C35.863 31.8534 35.9743 31.8534 36.0935 31.8534C36.1785 31.8477 36.2736 31.84 36.3788 31.8303C36.4496 31.8238 36.511 31.8793 36.511 31.9503V33.4209C36.511 33.4743 36.4757 33.5215 36.4241 33.5354C36.2039 33.5945 35.9745 33.638 35.7358 33.6661C35.4734 33.6979 35.1872 33.7138 34.8771 33.7138C33.8753 33.7138 33.1955 33.4594 32.8377 32.9506C32.4799 32.4338 32.301 31.7659 32.301 30.947V22.4914H30.6919C30.6255 22.4914 30.5717 22.4376 30.5717 22.3712V20.8584C30.5717 20.792 30.6255 20.7382 30.6919 20.7382H32.301V17.4126Z" fill="#1F6AEC"/>
<path d="M38.7292 20.9785C38.7292 20.8458 38.8368 20.7382 38.9695 20.7382H40.5283C40.661 20.7382 40.7686 20.8458 40.7686 20.9785V22.9446C40.9355 22.5152 41.345 21.9944 41.997 21.3822C42.6489 20.7621 43.4003 20.452 44.251 20.452C44.2907 20.452 44.3583 20.456 44.4537 20.4639C44.5335 20.4706 44.6606 20.4828 44.8349 20.5006C44.8961 20.5068 44.9427 20.5584 44.9427 20.62V22.6328C44.9427 22.7081 44.8744 22.7646 44.7999 22.7537C44.7252 22.7427 44.6536 22.7348 44.5849 22.7299C44.4816 22.7219 44.3663 22.718 44.2391 22.718C43.1578 22.718 42.3269 23.0678 41.7465 23.7675C41.1661 24.4592 40.8759 25.2582 40.8759 26.1646V33.2708C40.8759 33.4035 40.7683 33.5111 40.6356 33.5111H38.9695C38.8368 33.5111 38.7292 33.4035 38.7292 33.2708V20.9785Z" fill="#1F6AEC"/>
<path d="M48.449 30.1122C48.449 30.7323 48.6756 31.2213 49.1288 31.5791C49.582 31.9368 50.1186 32.1157 50.7388 32.1157C51.4941 32.1157 52.2256 31.9408 52.9332 31.591C54.1258 31.0106 54.7221 30.0605 54.7221 28.7406V27.0114C54.4597 27.1783 54.1218 27.3175 53.7084 27.4288C53.295 27.5401 52.8895 27.6196 52.4919 27.6673L51.192 27.8343C50.4128 27.9376 49.8284 28.1006 49.4389 28.3232C48.7789 28.6969 48.449 29.2932 48.449 30.1122ZM53.6488 25.771C54.1417 25.7074 54.4717 25.5007 54.6386 25.1509C54.734 24.9601 54.7817 24.6858 54.7817 24.328C54.7817 23.5965 54.5194 23.0678 53.9946 22.7418C53.4778 22.4079 52.7344 22.2409 51.7644 22.2409C50.6434 22.2409 49.8483 22.543 49.3792 23.1473C49.1456 23.4446 48.9845 23.8712 48.8958 24.4269C48.8767 24.547 48.7749 24.6381 48.6533 24.6381H47.1092C46.9742 24.6381 46.8652 24.5264 46.8731 24.3916C46.9579 22.9492 47.4633 21.9381 48.3894 21.3584C49.3752 20.7382 50.5162 20.4281 51.8121 20.4281C53.3148 20.4281 54.5353 20.7144 55.4735 21.2868C56.4037 21.8593 56.8688 22.7498 56.8688 23.9583V31.3167C56.8688 31.5393 56.9125 31.7182 57 31.8534C57.0954 31.9885 57.2902 32.0561 57.5844 32.0561C57.6798 32.0561 57.7871 32.0521 57.9064 32.0442C57.9832 32.0339 58.0634 32.022 58.1468 32.0085C58.2206 31.9965 58.288 32.053 58.288 32.1277V33.4801C58.288 33.5337 58.2524 33.5809 58.2008 33.5953C57.9094 33.6765 57.6841 33.7279 57.5247 33.7496C57.3498 33.7735 57.1113 33.7854 56.8092 33.7854C56.0698 33.7854 55.5331 33.523 55.1992 32.9983C55.0242 32.72 54.901 32.3264 54.8294 31.8176C54.3922 32.39 53.764 32.887 52.9451 33.3083C52.1262 33.7297 51.2238 33.9404 50.2379 33.9404C49.0532 33.9404 48.0832 33.5826 47.3279 32.8671C46.5806 32.1436 46.2069 31.2412 46.2069 30.1599C46.2069 28.9752 46.5766 28.0569 47.316 27.4049C48.0554 26.753 49.0254 26.3514 50.226 26.2004L53.6488 25.771Z" fill="#1F6AEC"/>
<path d="M60.3989 21.1583C60.3989 20.9592 60.5603 20.7979 60.7594 20.7979H62.221C62.42 20.7979 62.5814 20.9592 62.5814 21.1583V33.1507C62.5814 33.3497 62.42 33.5111 62.221 33.5111H60.7594C60.5603 33.5111 60.3989 33.3497 60.3989 33.1507V21.1583Z" fill="#1F6AEC"/>
<path d="M65.8969 16.3521C65.8969 16.153 66.0582 15.9916 66.2573 15.9916H67.6831C67.8822 15.9916 68.0436 16.153 68.0436 16.3521V33.1507C68.0436 33.3497 67.8822 33.5111 67.6831 33.5111H66.2573C66.0582 33.5111 65.8969 33.3497 65.8969 33.1507V16.3521Z" fill="#1F6AEC"/>
<g clip-path="url(#clip0)">
<path d="M64.3546 7.04773C62.3367 8.27515 62.1104 10.9069 62.1909 12.5733C63.7256 10.7693 65.6167 9.81329 66.6966 9.63302C64.9602 10.3133 63.652 11.6677 62.5638 13.1631C62.1248 13.9326 61.7208 14.6855 61.4916 15.5165C61.2411 14.5434 60.8137 13.6335 60.3526 12.7038C59.0574 10.6856 57.4655 8.83363 55.2695 7.82196C56.6535 8.13681 59.0299 9.51704 60.8798 11.9684C61.1103 9.81746 61.0154 6.39329 58.4965 4.65248C55.7251 2.73733 52.2269 2.0839 50.4992 1.86874C50.1066 1.81989 49.8337 2.25067 50.0482 2.58315C50.6139 3.46014 51.3821 5.0216 51.4955 7.15412C51.6083 9.28548 51.7391 13.2238 59.3493 13.8121C60.4797 15.8779 61.0364 16.9793 61.2422 18.9534C61.2578 19.1032 61.4694 19.1173 61.5053 18.971C61.6454 18.3994 62.0138 15.5245 63.2865 14.0617C69.1727 13.9505 69.4501 10.9241 69.6332 9.28824C69.8006 7.78729 70.3707 6.68091 70.8303 6.00659C71.0503 5.68389 70.7967 5.24962 70.4073 5.28061C69.0037 5.39237 66.4542 5.77095 64.3546 7.04773Z" fill="#1F6AEC"/>
</g>
<defs>
<clipPath id="clip0">
<rect width="20.9389" height="20.9389" fill="white" transform="translate(49.9729)"/>
</clipPath>
</defs>
</svg>
