<svg xmlns="http://www.w3.org/2000/svg" width="82" height="39" fill="none"><path fill="#1F6AEC" d="M0 18.757c0-.229.185-.414.413-.414h1.923c.229 0 .414.185.414.414v19.269a.413.413 0 0 1-.414.413H.413A.413.413 0 0 1 0 38.026v-19.27ZM6.854 24.294c0-.28.226-.506.505-.506h1.834v2.08c.693-.858 1.427-1.474 2.202-1.848.776-.373 1.637-.56 2.586-.56 2.08 0 3.484.725 4.213 2.175.402.793.602 1.928.602 3.406v9.122a.276.276 0 0 1-.275.276h-1.953a.276.276 0 0 1-.275-.276v-8.958c0-.894-.132-1.614-.397-2.161-.438-.912-1.231-1.368-2.38-1.368-.584 0-1.063.059-1.437.178-.675.2-1.267.602-1.778 1.203-.41.484-.68.985-.807 1.505-.119.51-.178 1.245-.178 2.203v7.398a.276.276 0 0 1-.276.276H7.13a.276.276 0 0 1-.276-.276v-13.87ZM23.786 33.843a.14.14 0 0 1 .139.125c.082.76.283 1.347.603 1.762.62.794 1.697 1.19 3.229 1.19.912 0 1.714-.195 2.407-.588.693-.4 1.04-1.017 1.04-1.846 0-.63-.278-1.108-.835-1.437-.355-.2-1.057-.433-2.106-.697l-1.957-.493c-1.249-.31-2.17-.657-2.763-1.04-1.058-.665-1.587-1.586-1.587-2.763 0-1.386.497-2.508 1.491-3.365 1.004-.857 2.349-1.286 4.036-1.286 2.207 0 3.799.647 4.774 1.942.582.782.879 1.622.89 2.52 0 .074-.06.134-.136.134h-2.063a.143.143 0 0 1-.14-.126 2.851 2.851 0 0 0-.575-1.392c-.566-.648-1.546-.971-2.942-.971-.93 0-1.637.177-2.12.533-.474.356-.711.825-.711 1.41 0 .638.314 1.148.944 1.531.364.228.902.429 1.614.602l1.628.397c1.77.428 2.955.843 3.557 1.245.957.629 1.436 1.619 1.436 2.968 0 1.304-.497 2.43-1.491 3.38-.985.948-2.49 1.422-4.515 1.422-2.18 0-3.725-.492-4.637-1.477-.873-.962-1.354-2.14-1.442-3.537a.136.136 0 0 1 .136-.143h2.096ZM36.95 19.973c0-.152.123-.275.275-.275h1.939c.152 0 .275.123.275.275v3.815h2.202c.076 0 .138.062.138.138v1.735a.138.138 0 0 1-.138.138h-2.202v9.562c0 .51.174.853.52 1.026.192.1.51.15.958.15h.383c.097-.006.206-.015.327-.026a.139.139 0 0 1 .152.138v1.687c0 .06-.04.115-.1.13a5.533 5.533 0 0 1-.79.15 8.21 8.21 0 0 1-.985.056c-1.149 0-1.929-.292-2.339-.876-.41-.593-.615-1.359-.615-2.298v-9.7h-1.846a.138.138 0 0 1-.138-.137v-1.735c0-.076.062-.138.138-.138h1.846v-3.815ZM44.323 24.064c0-.153.123-.276.276-.276h1.788c.152 0 .275.123.275.276v2.255c.192-.493.662-1.09 1.41-1.792.747-.712 1.609-1.067 2.585-1.067.045 0 .123.004.232.013l.438.042c.07.007.123.067.123.137v2.31a.142.142 0 0 1-.164.138 3.37 3.37 0 0 0-.246-.028 5.224 5.224 0 0 0-.397-.013c-1.24 0-2.193.401-2.859 1.204a4.152 4.152 0 0 0-.999 2.75v8.15a.276.276 0 0 1-.275.276h-1.911a.276.276 0 0 1-.276-.276v-14.1ZM55.472 34.54c0 .712.26 1.273.78 1.683.52.41 1.135.616 1.847.616.866 0 1.705-.201 2.517-.602 1.368-.666 2.052-1.756 2.052-3.27v-1.983c-.301.191-.689.35-1.163.478a9.9 9.9 0 0 1-1.395.274l-1.491.191c-.894.119-1.565.306-2.011.561-.757.429-1.136 1.113-1.136 2.052Zm5.965-4.98c.565-.072.944-.31 1.135-.71.11-.22.164-.534.164-.945 0-.838-.3-1.445-.903-1.819-.592-.383-1.445-.574-2.558-.574-1.286 0-2.198.346-2.736 1.04-.268.34-.453.83-.554 1.467a.284.284 0 0 1-.278.242h-1.772a.269.269 0 0 1-.27-.282c.097-1.655.677-2.815 1.739-3.48 1.13-.711 2.44-1.067 3.926-1.067 1.724 0 3.123.329 4.2.985 1.067.657 1.6 1.678 1.6 3.064v8.441c0 .255.05.46.15.616.11.155.334.232.671.232.11 0 .233-.004.37-.014.088-.011.18-.025.275-.04a.14.14 0 0 1 .162.136v1.552c0 .061-.04.115-.1.132a6.285 6.285 0 0 1-.775.177c-.201.027-.475.04-.821.04-.848 0-1.464-.3-1.847-.902-.2-.32-.342-.77-.424-1.354-.502.656-1.222 1.226-2.161 1.71-.94.483-1.975.725-3.106.725-1.359 0-2.471-.41-3.338-1.232-.857-.83-1.286-1.865-1.286-3.105 0-1.359.424-2.412 1.273-3.16.848-.748 1.96-1.208 3.337-1.382l3.927-.492ZM69.18 24.27c0-.229.185-.414.413-.414h1.676c.229 0 .414.185.414.414v13.756a.413.413 0 0 1-.414.413h-1.676a.413.413 0 0 1-.413-.413V24.27ZM75.486 18.757c0-.229.185-.414.413-.414h1.636c.228 0 .413.185.413.414v19.269a.413.413 0 0 1-.413.413h-1.636a.413.413 0 0 1-.413-.413v-19.27Z"/><g clip-path="url(#a)"><path fill="#00DDC0" d="M73.716 8.084c-2.314 1.408-2.574 4.427-2.481 6.339 1.76-2.07 3.93-3.166 5.168-3.373-1.992.78-3.493 2.334-4.74 4.05-.504.882-.968 1.745-1.23 2.699-.288-1.117-.778-2.16-1.307-3.227-1.486-2.315-3.312-4.44-5.83-5.6 1.587.362 4.313 1.945 6.435 4.757.264-2.468.155-6.395-2.734-8.392-3.18-2.197-7.192-2.946-9.174-3.193a.535.535 0 0 0-.517.82c.649 1.005 1.53 2.796 1.66 5.242.13 2.445.28 6.963 9.009 7.638 1.297 2.37 1.935 3.633 2.171 5.897.018.172.26.188.302.02.16-.656.583-3.953 2.043-5.631 6.752-.128 7.07-3.6 7.28-5.476a8.313 8.313 0 0 1 1.373-3.764.535.535 0 0 0-.485-.833c-1.61.129-4.534.563-6.943 2.027Z"/></g><defs><clipPath id="a"><path fill="#fff" d="M0 0h24.018v24.018H0z" transform="translate(57.22)"/></clipPath></defs></svg>