<svg width="20" height="20" viewBox="0 0 20 20" fill="none" xmlns="http://www.w3.org/2000/svg">
<path fill-rule="evenodd" clip-rule="evenodd" d="M7.43809 13.6583H11.9265C12.2648 13.6583 12.5454 13.3749 12.5454 13.0333C12.5454 12.6916 12.2648 12.4166 11.9265 12.4166H7.43809C7.0998 12.4166 6.81928 12.6916 6.81928 13.0333C6.81928 13.3749 7.0998 13.6583 7.43809 13.6583ZM10.2269 8.24993H7.43809C7.0998 8.24993 6.81928 8.53327 6.81928 8.87493C6.81928 9.2166 7.0998 9.4916 7.43809 9.4916H10.2269C10.5652 9.4916 10.8457 9.2166 10.8457 8.87493C10.8457 8.53327 10.5652 8.24993 10.2269 8.24993ZM16.115 7.5213C16.309 7.51906 16.5201 7.51663 16.712 7.51663C16.9183 7.51663 17.0833 7.68329 17.0833 7.89163V14.5916C17.0833 16.6583 15.4249 18.3333 13.3787 18.3333H6.81102C4.6658 18.3333 2.91663 16.575 2.91663 14.4083V5.42496C2.91663 3.35829 4.58329 1.66663 6.63775 1.66663H11.0437C11.2582 1.66663 11.4232 1.84163 11.4232 2.04996V4.73329C11.4232 6.25829 12.6691 7.50829 14.179 7.51663C14.5317 7.51663 14.8426 7.51926 15.1147 7.52157C15.3264 7.52336 15.5146 7.52496 15.6807 7.52496C15.7981 7.52496 15.9503 7.5232 16.115 7.5213ZM16.3425 6.30497C15.6643 6.30747 14.8648 6.30497 14.2897 6.29913C13.3772 6.29913 12.6255 5.53997 12.6255 4.6183V2.42163C12.6255 2.06247 13.0571 1.88413 13.3038 2.1433C13.7499 2.61182 14.3628 3.25568 14.9731 3.89676C15.5829 4.53734 16.1901 5.17515 16.6255 5.63247C16.8665 5.88497 16.6899 6.30413 16.3425 6.30497Z" fill="#B9C8D4"/>
</svg>
