<svg xmlns="http://www.w3.org/2000/svg" width="40" height="40" fill="none"><rect width="40" height="40" fill="#fff" rx="10"/><g clip-path="url(#a)"><path fill="#EECA30" d="M16.221 24.096a2.264 2.264 0 0 1 0 3.189c-.875.875-3.454 2.016-4.33 1.14-.874-.874.267-3.453 1.142-4.329a2.264 2.264 0 0 1 3.188 0Z"/><path fill="#E1B703" d="M13.61 23.675v.094a2.962 2.962 0 0 0 2.955 2.955h.063a2.247 2.247 0 0 0-.422-2.626c-.688-.704-1.751-.845-2.595-.422Z"/><path fill="#CA2855" d="M20.818 19.19c2.673 2.672 3.204 6.47.672 9.003l-1.203 1.203c-2.532 2.532-.782-3.548-3.455-6.22-2.673-2.674-8.768-.907-6.22-3.455l1.203-1.204c2.532-2.532 6.33-2 9.003.672Z"/><path fill="#F1EBC7" d="M29.663 10.342c.813.813.454 5.971-4.532 10.973-3.251 3.236-5.299 4.377-5.299 4.377-2.173 1.469-3.22.468-4.595-.907-1.376-1.375-2.392-2.423-.907-4.595 0 0 1.157-2.064 4.392-5.315 4.986-4.986 10.129-5.36 10.941-4.533Z"/><path fill="#E8E4C8" d="M20.692 24.989c-2.267 1.516-3.361.484-4.783-.938-1.438-1.438-2.486-2.516-.938-4.783l.234-.375c-.61.828-.875 1.297-.875 1.297-1.485 2.173-.469 3.22.907 4.596 1.375 1.375 2.422 2.36 4.595.906 0 0 .969-.547 2.642-1.938-1.142.875-1.782 1.235-1.782 1.235Z"/><path fill="#8BA0AB" d="M24.428 15.579c.766.765.766 2 0 2.766s-2 .766-2.767 0c-.766-.766-.766-2 0-2.766s2.017-.766 2.767 0Z"/><path fill="#CA2855" d="M19.91 20.424c.39.39-.36 1.782-2.267 3.689s-3.064 2.423-3.455 2.016c-.39-.39.11-1.547 2.017-3.454 1.922-1.907 3.298-2.657 3.704-2.25Z"/><path fill="#324D5B" d="M23.051 15.47c.391 0 .766.156 1.048.437.281.281.437.657.437 1.047 0 .391-.156.766-.437 1.047a1.48 1.48 0 0 1-1.048.438 1.48 1.48 0 0 1-1.047-.438 1.48 1.48 0 0 1-.438-1.047c0-.39.157-.766.438-1.047a1.48 1.48 0 0 1 1.047-.438Zm0-.47c-.5 0-1 .188-1.375.579-.766.766-.766 2 0 2.766.375.376.875.579 1.375.579s1-.188 1.376-.579c.766-.765.766-2 0-2.766A1.892 1.892 0 0 0 23.05 15Z"/><path fill="#CA2855" d="M24.88 10.734c.142 1.047.704 2.157 1.626 3.079.813.797 1.751 1.328 2.673 1.547 1.032-2.563.954-4.533.485-5.017-.454-.47-2.33-.547-4.783.39Z"/></g><defs><clipPath id="a"><path fill="#fff" d="M0 0h20v20H0z" transform="translate(10 10)"/></clipPath></defs></svg>