<svg width="20" height="20" viewBox="0 0 20 20" fill="none" xmlns="http://www.w3.org/2000/svg">
<path fill-rule="evenodd" clip-rule="evenodd" d="M7.43809 13.6583H11.9265C12.2648 13.6583 12.5454 13.375 12.5454 13.0333C12.5454 12.6917 12.2648 12.4167 11.9265 12.4167H7.43809C7.0998 12.4167 6.81928 12.6917 6.81928 13.0333C6.81928 13.375 7.0998 13.6583 7.43809 13.6583ZM10.2269 8.24999H7.43809C7.0998 8.24999 6.81928 8.53333 6.81928 8.87499C6.81928 9.21666 7.0998 9.49166 7.43809 9.49166H10.2269C10.5652 9.49166 10.8457 9.21666 10.8457 8.87499C10.8457 8.53333 10.5652 8.24999 10.2269 8.24999ZM16.115 7.52136C16.309 7.51912 16.5201 7.51669 16.712 7.51669C16.9183 7.51669 17.0833 7.68335 17.0833 7.89169V14.5917C17.0833 16.6584 15.4249 18.3334 13.3787 18.3334H6.81102C4.6658 18.3334 2.91663 16.575 2.91663 14.4084V5.42502C2.91663 3.35835 4.58329 1.66669 6.63775 1.66669H11.0437C11.2582 1.66669 11.4232 1.84169 11.4232 2.05002V4.73335C11.4232 6.25835 12.6691 7.50835 14.179 7.51669C14.5317 7.51669 14.8426 7.51932 15.1147 7.52163C15.3264 7.52343 15.5146 7.52502 15.6807 7.52502C15.7981 7.52502 15.9503 7.52326 16.115 7.52136ZM16.3425 6.30503C15.6643 6.30753 14.8648 6.30503 14.2897 6.2992C13.3772 6.2992 12.6255 5.54003 12.6255 4.61836V2.4217C12.6255 2.06253 13.0571 1.8842 13.3038 2.14336C13.7508 2.61278 14.3652 3.25823 14.9766 3.90054C15.5853 4.53987 16.1909 5.17609 16.6255 5.63253C16.8665 5.88503 16.6899 6.3042 16.3425 6.30503Z" fill="#B9C8D4"/>
</svg>
